# WaveFront *.obj file (generated by Autodesk ATF)

mtllib Image structure.mtl

g Solid1

v -501.370600 -12.000000 191.134932
v -501.370600 -12.000000 407.351372
v -501.370600 0.000000 191.134932
v -501.370600 0.000000 407.351372
v -386.286289 -12.000000 35.390097
v -386.286289 0.000000 35.390097
v -261.184284 -12.000000 481.684599
v -261.184284 0.000000 481.684599
v -242.394923 84.030055 -85.220019
v -235.424685 71.967922 -74.984507
v -180.000005 -12.000000 -119.999995
v -180.000005 -12.000000 0.000000
v -180.000005 0.000000 -119.999995
v -180.000005 0.000000 0.000000
v -180.000005 168.882872 -27.714602
v -173.029742 156.820739 -17.479095
v -159.282198 84.030055 -175.399576
v -158.129450 -12.000000 368.580904
v -158.129450 0.000000 368.580904
v -143.102451 72.241932 -175.560935
v -142.900963 71.967922 -175.375234
v -96.887267 168.882872 -117.894162
v -80.707520 156.820739 -118.055521
v -80.707520 157.094748 -118.055521
v -80.506032 156.820739 -117.869820
v -79.408132 156.820739 119.999995
v -79.408132 168.882872 119.999995
v -74.488686 156.820739 4.255297
v -73.412173 156.820739 -13.316336
v -71.418089 156.820739 21.590018
v -68.551552 -12.000000 -270.767885
v -68.551552 0.000000 -270.767885
v -68.248484 156.820739 -30.146588
v -64.371328 156.820739 37.722727
v -59.285099 156.820739 -45.298449
v -53.740734 156.820739 51.755247
v -53.477646 0.000000 0.000000
v -51.311427 0.000000 -15.066395
v -51.311427 0.000000 15.066395
v -49.610135 142.386982 0.000000
v -47.600576 142.386982 -13.976789
v -47.600576 142.386982 13.976789
v -47.021049 156.820739 -57.928347
v -44.988260 0.000000 -28.912200
v -44.988260 0.000000 28.912200
v -41.734701 142.386982 -26.821263
v -41.734701 142.386982 26.821263
v -40.118156 156.820739 62.906322
v -39.087341 134.441045 -3.621975
v -39.087341 134.441045 3.621975
v -37.756270 134.441045 -10.742585
v -37.756270 134.441045 10.742585
v -35.139453 134.441045 -17.497368
v -35.139453 134.441045 17.497368
v -35.020411 0.000000 -40.415711
v -35.020411 0.000000 40.415711
v -32.487728 142.386982 -37.492839
v -32.487728 142.386982 37.492839
v -32.139131 156.820739 -67.333113
v -31.326003 134.441045 -23.656300
v -31.326003 134.441045 23.656300
v -31.175307 124.085710 -2.888818
v -31.175307 124.085710 2.888818
v -30.113668 124.085710 -8.568077
v -30.113668 124.085710 8.568077
v -28.141905 43.038475 -5.260633
v -28.141905 43.038475 5.260633
v -28.026548 124.085710 -13.955562
v -28.026548 124.085710 13.955562
v -26.445785 134.441045 -29.009643
v -26.445785 134.441045 29.009643
v -26.201594 112.026665 -2.427935
v -26.201594 112.026665 2.427935
v -25.632360 50.273904 0.000000
v -25.309330 112.026665 -7.201125
v -25.309330 112.026665 7.201125
v -24.989703 50.273904 -5.703737
v -24.989703 50.273904 5.703737
v -24.985013 124.085710 -18.867807
v -24.985013 124.085710 18.867807
v -24.610135 99.085710 0.000000
v -24.341184 43.038475 -15.071423
v -24.341184 43.038475 15.071423
v -24.262024 156.820739 70.555133
v -24.072344 58.038474 -5.116735
v -24.072344 58.038474 5.116735
v -23.555186 112.026665 -11.729089
v -23.555186 112.026665 11.729089
v -23.093958 50.273904 -11.121465
v -23.093958 50.273904 11.121465
v -22.482477 99.085710 -10.009844
v -22.482477 99.085710 10.009844
v -22.215418 0.000000 -48.644980
v -22.215418 0.000000 48.644980
v -21.092646 124.085710 -23.137530
v -21.092646 124.085710 23.137530
v -20.998901 112.026665 -15.857633
v -20.998901 112.026665 15.857633
v -20.664987 134.441045 -33.375099
v -20.664987 134.441045 33.375099
v -20.608795 142.386982 -45.126965
v -20.608795 142.386982 45.126965
v -20.040186 50.273904 -15.981515
v -20.040186 50.273904 15.981515
v -19.910018 58.038474 -14.465475
v -19.910018 58.038474 14.465475
v -17.727521 112.026665 -19.446166
v -17.727521 112.026665 19.446166
v -17.253051 43.038475 -22.846733
v -17.253051 43.038475 22.846733
v -16.481993 124.085710 -26.619333
v -16.481993 124.085710 26.619333
v -16.467395 99.085710 -18.288895
v -16.467395 99.085710 18.288895
v -15.981515 50.273904 -20.040186
v -15.981515 50.273904 20.040186
v -15.467887 156.820739 -72.989156
v -14.180467 134.441045 -36.604006
v -14.180467 134.441045 36.604006
v -13.852454 112.026665 -22.372480
v -13.852454 112.026665 22.372480
v -12.305067 58.038474 -21.313002
v -12.305067 58.038474 21.313002
v -11.310067 124.085710 -29.194647
v -11.310067 124.085710 29.194647
v -11.121465 50.273904 -23.093958
v -11.121465 50.273904 23.093958
v -9.505656 112.026665 -24.536929
v -9.505656 112.026665 24.536929
v -7.834799 43.038475 -27.536464
v -7.834799 43.038475 27.536464
v -7.610663 0.000000 -52.933322
v -7.610663 0.000000 52.933322
v -7.604950 99.085710 -23.405629
v -7.604950 99.085710 23.405629
v -7.213050 134.441045 -38.586408
v -7.213050 134.441045 38.586408
v -7.060258 142.386982 -49.105174
v -7.060258 142.386982 49.105174
v -7.055118 156.820739 74.275820
v -5.752989 124.085710 -30.775773
v -5.752989 124.085710 30.775773
v -5.703737 50.273904 -24.989703
v -5.703737 50.273904 24.989703
v -4.835156 112.026665 -25.865801
v -4.835156 112.026665 25.865801
v -2.572459 58.038474 -24.475318
v -2.572459 58.038474 24.475318
v 0.000000 50.273904 -25.632360
v 0.000000 50.273904 25.632360
v 0.000000 112.026665 -26.313845
v 0.000000 112.026665 26.313845
v 0.000000 124.085710 -31.308863
v 0.000000 124.085710 31.308863
v 0.000000 134.441045 -39.254797
v 0.000000 134.441045 39.254797
v 2.064522 156.820739 -74.581567
v 2.572459 99.085710 -24.475318
v 2.572459 99.085710 24.475318
v 2.641585 43.038475 -28.507245
v 2.641585 43.038475 28.507245
v 4.171924 152.606117 67.180784
v 4.835156 112.026665 -25.865801
v 4.835156 112.026665 25.865801
v 5.703737 50.273904 -24.989703
v 5.703737 50.273904 24.989703
v 5.752989 124.085710 -30.775773
v 5.752989 124.085710 30.775773
v 7.060258 142.386982 -49.105174
v 7.060258 142.386982 49.105174
v 7.213050 134.441045 -38.586408
v 7.213050 134.441045 38.586408
v 7.604950 58.038474 -23.405629
v 7.604950 58.038474 23.405629
v 7.610663 0.000000 -52.933322
v 7.610663 0.000000 52.933322
v 9.505656 112.026665 -24.536929
v 9.505656 112.026665 24.536929
v 11.121465 50.273904 -23.093958
v 11.121465 50.273904 23.093958
v 11.310067 124.085710 -29.194647
v 11.310067 124.085710 29.194647
v 12.305067 99.085710 -21.313002
v 12.305067 99.085710 21.313002
v 12.761209 43.038475 -25.627962
v 12.761209 43.038475 25.627962
v 13.852454 112.026665 -22.372480
v 13.852454 112.026665 22.372480
v 13.976096 149.867008 60.984946
v 14.180467 134.441045 -36.604006
v 14.180467 134.441045 36.604006
v 15.981515 50.273904 -20.040186
v 15.981515 50.273904 20.040186
v 16.467395 58.038474 -18.288895
v 16.467395 58.038474 18.288895
v 16.481993 124.085710 -26.619333
v 16.481993 124.085710 26.619333
v 17.727521 112.026665 -19.446166
v 17.727521 112.026665 19.446166
v 19.481991 156.820739 -72.021695
v 19.910018 99.085710 -14.465475
v 19.910018 99.085710 14.465475
v 20.040186 50.273904 -15.981515
v 20.040186 50.273904 15.981515
v 20.608795 142.386982 -45.126965
v 20.608795 142.386982 45.126965
v 20.664987 134.441045 -33.375099
v 20.664987 134.441045 33.375099
v 20.998901 112.026665 -15.857633
v 20.998901 112.026665 15.857633
v 21.092646 124.085710 -23.137530
v 21.092646 124.085710 23.137530
v 21.157362 43.038475 -19.287483
v 21.157362 43.038475 19.287483
v 22.215418 0.000000 -48.644980
v 22.215418 0.000000 48.644980
v 22.482477 58.038474 -10.009844
v 22.482477 58.038474 10.009844
v 22.946263 148.320115 55.316162
v 23.093958 50.273904 -11.121465
v 23.093958 50.273904 11.121465
v 23.555186 112.026665 -11.729089
v 23.555186 112.026665 11.729089
v 24.072344 99.085710 -5.116735
v 24.072344 99.085710 5.116735
v 24.610135 58.038474 0.000000
v 24.985013 124.085710 -18.867807
v 24.985013 124.085710 18.867807
v 24.989703 50.273904 -5.703737
v 24.989703 50.273904 5.703737
v 25.309330 112.026665 -7.201125
v 25.309330 112.026665 7.201125
v 25.632360 50.273904 0.000000
v 26.201594 112.026665 -2.427935
v 26.201594 112.026665 2.427935
v 26.445785 134.441045 -29.009643
v 26.445785 134.441045 29.009643
v 26.696096 43.038475 -10.342123
v 26.696096 43.038475 10.342123
v 28.026548 124.085710 -13.955562
v 28.026548 124.085710 13.955562
v 28.629372 43.038475 0.000000
v 30.113668 124.085710 -8.568077
v 30.113668 124.085710 8.568077
v 31.175307 124.085710 -2.888818
v 31.175307 124.085710 2.888818
v 31.326003 134.441045 -23.656300
v 31.326003 134.441045 23.656300
v 31.529617 147.819531 49.891828
v 32.487728 142.386982 -37.492839
v 32.487728 142.386982 37.492839
v 35.020411 0.000000 -40.415711
v 35.020411 0.000000 40.415711
v 35.139453 134.441045 -17.497368
v 35.139453 134.441045 17.497368
v 35.814811 156.820739 -65.452053
v 37.756270 134.441045 -10.742585
v 37.756270 134.441045 10.742585
v 39.087341 134.441045 -3.621975
v 39.087341 134.441045 3.621975
v 40.112972 148.320115 44.467493
v 41.734701 142.386982 -26.821263
v 41.734701 142.386982 26.821263
v 44.988260 0.000000 -28.912200
v 44.988260 0.000000 28.912200
v 47.600576 142.386982 -13.976789
v 47.600576 142.386982 13.976789
v 49.083142 149.867008 38.798709
v 49.610135 142.386982 0.000000
v 50.153663 156.820739 -55.238414
v 51.311427 0.000000 -15.066395
v 51.311427 0.000000 15.066395
v 53.477646 0.000000 0.000000
v 58.887313 152.606117 32.602872
v 61.700241 156.820739 -41.949406
v 68.197097 -12.000000 196.136427
v 68.197097 -12.000000 336.587020
v 68.197097 0.000000 196.136427
v 68.197097 0.000000 336.587020
v 69.811693 156.820739 -26.324892
v 70.114352 156.820739 25.507835
v 74.036419 156.820739 -9.234753
v 74.139218 156.820739 8.369525
v 96.917713 -12.000000 -119.999995
v 96.917713 0.000000 -119.999995
v 110.477429 156.820739 -119.999995
v 110.477429 156.820739 -119.962185
v 110.477429 156.820739 0.000000
v 110.477429 168.882872 -119.999995
v 110.477429 168.882872 -119.962185
v 110.477429 168.882872 0.000000
v 180.000005 -12.000000 -119.999995
v 180.000005 -12.000000 0.000000
v 180.000005 -12.000000 119.999995
v 180.000005 0.000000 -119.999995
v 180.000005 0.000000 0.000000
v 180.000005 0.000000 119.999995
v 180.000005 168.882872 -119.999995
v 180.000005 168.882872 0.000000
v 183.121472 156.820739 -119.999995
v 183.121472 156.820739 0.000000
v 197.237366 1.917373 -119.999995
v 197.237366 1.917373 0.000000
v 198.803831 -10.023637 -119.999995
v 198.803831 -10.023637 0.000000
v 198.803831 166.906510 -119.999995
v 198.803831 166.906510 0.000000
v 200.268879 154.218947 -119.999995
v 200.268879 154.218947 0.000000
v 213.632034 7.575757 -119.999995
v 213.632034 7.575757 0.000000
v 216.425402 147.912634 -119.999995
v 216.425402 147.912634 0.000000
v 216.785845 -4.180927 -119.999995
v 216.785845 -4.180927 0.000000
v 216.785845 161.063800 -119.999995
v 216.785845 161.063800 0.000000
v 228.382573 16.698532 -119.999995
v 228.382573 16.698532 0.000000
v 230.801223 138.210110 -119.999995
v 230.801223 138.210110 0.000000
v 233.160136 5.272777 -119.999995
v 233.160136 5.272777 0.000000
v 233.160136 151.610091 -119.999995
v 233.160136 151.610091 0.000000
v 240.767832 28.839718 -119.999995
v 240.767832 28.839718 0.000000
v 242.693515 125.585685 -119.999995
v 242.693515 125.585685 0.000000
v 247.211078 17.924303 -119.999995
v 247.211078 17.924303 0.000000
v 247.211078 138.958572 -119.999995
v 247.211078 138.958572 0.000000
v 250.182337 43.405767 -119.999995
v 250.182337 43.405767 0.000000
v 251.520953 110.656534 -119.999995
v 251.520953 110.656534 0.000000
v 256.165872 59.684597 -119.999995
v 256.165872 59.684597 0.000000
v 256.851941 94.152490 -119.999995
v 256.851941 94.152490 0.000000
v 258.324571 33.220718 -119.999995
v 258.324571 33.220718 0.000000
v 258.324571 123.662153 -119.999995
v 258.324571 123.662153 0.000000
v 258.425903 76.880387 -119.999995
v 258.425903 76.880387 0.000000
v 266.014904 50.493496 -119.999995
v 266.014904 50.493496 0.000000
v 266.014904 106.389372 -119.999995
v 266.014904 106.389372 0.000000
v 269.945977 68.987731 -119.999995
v 269.945977 68.987731 0.000000
v 269.945977 87.895137 -119.999995
v 269.945977 87.895137 0.000000
vt 0.000000 0.000000 0.000000
vt 343.573334 0.000000 0.000000
vt 343.573334 30.480000 0.000000
vt 0.000000 30.480000 0.000000
vt 0.000000 0.000000 0.000000
vt 356.744507 0.000000 0.000000
vt 356.744507 30.480000 0.000000
vt 0.000000 30.480000 0.000000
vt 0.000000 0.000000 0.000000
vt 580.584839 0.000000 0.000000
vt 580.584839 30.480000 0.000000
vt 0.000000 30.480000 0.000000
vt 0.000000 0.000000 0.000000
vt 388.651123 0.000000 0.000000
vt 388.651123 30.480000 0.000000
vt 0.000000 30.480000 0.000000
vt 0.000000 0.000000 0.000000
vt 638.621399 0.000000 0.000000
vt 638.621399 30.480000 0.000000
vt 0.000000 30.480000 0.000000
vt 0.000000 0.000000 0.000000
vt 549.189819 0.000000 0.000000
vt 549.189819 30.480000 0.000000
vt 0.000000 30.480000 0.000000
vt 0.000000 0.000000 0.000000
vt 491.874512 0.000000 0.000000
vt 491.874512 30.480000 0.000000
vt 0.000000 30.480000 0.000000
vt 0.000000 0.000000 0.000000
vt 531.622009 0.000000 0.000000
vt 531.622009 30.480000 0.000000
vt 0.000000 30.480000 0.000000
vt 304.799988 30.480000 0.000000
vt 304.799988 0.000000 0.000000
vt 609.599976 0.000000 0.000000
vt 609.599976 30.480000 0.000000
vt 0.492134 0.492134 0.000000
vt 0.984268 0.000000 0.000000
vt 0.984268 304.799988 0.000000
vt 0.000000 304.799988 0.000000
vt 0.000000 0.000000 0.000000
vt 0.000000 0.000000 0.000000
vt 50.848885 0.000000 0.000000
vt 50.848885 304.799988 0.000000
vt 0.000000 304.799988 0.000000
vt 0.000000 0.000000 0.000000
vt 311.500519 0.000000 0.000000
vt 311.500519 304.799988 0.000000
vt 0.000000 304.799988 0.000000
vt 0.000000 0.000000 0.000000
vt 43.909332 0.000000 0.000000
vt 43.909332 304.799988 0.000000
vt 0.000000 304.799988 0.000000
vt 0.000000 0.000000 0.000000
vt 346.772186 0.000000 0.000000
vt 346.772186 304.799988 0.000000
vt 0.000000 304.799988 0.000000
vt -179.211899 -15.547903 0.000000
vt 167.560287 -15.547903 0.000000
vt 160.441452 27.780512 0.000000
vt -151.059067 27.780512 0.000000
vt -179.211899 -14.563636 0.000000
vt 453.930969 0.000000 0.000000
vt 422.476959 30.637815 0.000000
vt 0.000000 30.637815 0.000000
vt 0.000000 0.000000 0.000000
vt 904.624084 44.396900 0.000000
vt 669.613892 299.389343 0.000000
vt 670.125671 299.861023 0.000000
vt 184.515869 304.703949 0.000000
vt 184.515869 304.799988 0.000000
vt 0.000000 304.799988 0.000000
vt 0.000000 0.000000 0.000000
vt 184.515869 0.000000 0.000000
vt 287.038086 -64.789902 0.000000
vt 276.814941 -21.258593 0.000000
vt 277.076050 23.456272 0.000000
vt 287.806854 66.865227 0.000000
vt 308.409943 106.551491 0.000000
vt 337.738251 140.305573 0.000000
vt 374.158936 166.248215 0.000000
vt 415.644287 182.935104 0.000000
vt 459.884674 189.437180 0.000000
vt 504.416992 185.392456 0.000000
vt 546.761963 171.026108 0.000000
vt 584.562012 147.138000 0.000000
vt 615.712708 115.058060 0.000000
vt 638.479675 76.572334 0.000000
vt 651.595459 33.823494 0.000000
vt 654.329834 -10.808454 0.000000
vt 646.530518 -54.838646 0.000000
vt 628.631714 -95.815727 0.000000
vt 601.630005 -131.458328 0.000000
vt 567.028687 -159.782059 0.000000
vt 526.754089 -179.210037 0.000000
vt 483.048553 -188.660583 0.000000
vt 666.825195 -304.799988 0.000000
vt 568.591553 30.480000 0.000000
vt 0.000000 30.480000 0.000000
vt 0.000000 0.000000 0.000000
vt 568.591553 0.000000 0.000000
vt 476.219238 30.480000 0.000000
vt 0.000000 30.480000 0.000000
vt 0.000000 0.000000 0.000000
vt 476.219238 0.000000 0.000000
vt 703.370972 30.480000 0.000000
vt 703.370972 0.000000 0.000000
vt 914.400024 0.000000 0.000000
vt 958.182922 -4.870127 0.000000
vt 999.825378 -19.242422 0.000000
vt 1037.291748 -42.414272 0.000000
vt 1068.750244 -73.252884 0.000000
vt 1092.663086 -110.250648 0.000000
vt 1107.861328 -151.598877 0.000000
vt 1113.601807 -195.276184 0.000000
vt 1109.603882 -239.147324 0.000000
vt 1096.063232 -281.067596 0.000000
vt 1073.641602 -318.987640 0.000000
vt 1043.435059 -351.053680 0.000000
vt 1006.920532 -375.698090 0.000000
vt 965.882996 -391.716125 0.000000
vt 922.328552 -398.324677 0.000000
vt 737.812683 -398.324677 0.000000
vt 737.812683 -428.962494 0.000000
vt 914.400024 -428.962494 0.000000
vt 962.161743 -423.942535 0.000000
vt 1007.836060 -409.102051 0.000000
vt 1049.426758 -385.089630 0.000000
vt 1085.116211 -352.954773 0.000000
vt 1113.344482 -314.101868 0.000000
vt 1132.877930 -270.229004 0.000000
vt 1142.862793 -223.253647 0.000000
vt 1142.862793 -175.228836 0.000000
vt 1132.877930 -128.253479 0.000000
vt 1113.344482 -84.380623 0.000000
vt 1085.116211 -45.527729 0.000000
vt 1049.426758 -13.392854 0.000000
vt 1007.836060 10.619555 0.000000
vt 962.161743 25.460039 0.000000
vt 914.400024 30.480000 0.000000
vt 398.982269 -124.916817 0.000000
vt 398.982269 -91.605667 0.000000
vt 398.982269 -58.294514 0.000000
vt 398.982269 -24.983364 0.000000
vt 398.982269 8.327787 0.000000
vt 398.982269 41.638939 0.000000
vt 398.982269 74.950089 0.000000
vt 398.982269 108.261238 0.000000
vt 398.982269 141.572388 0.000000
vt 398.982269 174.883530 0.000000
vt 398.982269 208.194687 0.000000
vt 398.982269 -258.161407 0.000000
vt 398.982269 -224.850266 0.000000
vt 398.982269 -191.539108 0.000000
vt 398.982269 -158.227966 0.000000
vt 265.988190 -124.916817 0.000000
vt 265.988190 -147.628952 0.000000
vt 265.988190 -170.341110 0.000000
vt 265.988190 -193.053268 0.000000
vt 265.988190 -215.765411 0.000000
vt 265.988190 261.189697 0.000000
vt 265.988190 238.477539 0.000000
vt 265.988190 215.765411 0.000000
vt 265.988190 193.053268 0.000000
vt 265.988190 170.341110 0.000000
vt 265.988190 147.628952 0.000000
vt 265.988190 124.916817 0.000000
vt 265.988190 102.204666 0.000000
vt 265.988190 79.492516 0.000000
vt 265.988190 56.780369 0.000000
vt 265.988190 34.068222 0.000000
vt 265.988190 11.356073 0.000000
vt 265.988190 -11.356073 0.000000
vt 265.988190 -34.068222 0.000000
vt 265.988190 -56.780369 0.000000
vt 265.988190 -79.492516 0.000000
vt 265.988190 -102.204666 0.000000
vt 365.733734 249.833633 0.000000
vt 332.485229 249.833633 0.000000
vt 299.236694 -249.833633 0.000000
vt 299.236694 -220.441422 0.000000
vt 365.733734 -220.441422 0.000000
vt 299.236694 -176.353149 0.000000
vt 365.733734 -176.353149 0.000000
vt 299.236694 -132.264862 0.000000
vt 365.733734 -146.960953 0.000000
vt 299.236694 -102.872673 0.000000
vt 365.733734 -117.568764 0.000000
vt 299.236694 -58.784382 0.000000
vt 365.733734 -73.480476 0.000000
vt 299.236694 -14.696095 0.000000
vt 365.733734 -44.088287 0.000000
vt 365.733734 -14.696095 0.000000
vt 299.236694 29.392191 0.000000
vt 365.733734 14.696095 0.000000
vt 299.236694 73.480476 0.000000
vt 365.733734 58.784382 0.000000
vt 299.236694 117.568764 0.000000
vt 365.733734 88.176575 0.000000
vt 299.236694 146.960953 0.000000
vt 365.733734 117.568764 0.000000
vt 365.733734 146.960953 0.000000
vt 299.236694 191.049240 0.000000
vt 365.733734 191.049240 0.000000
vt 299.236694 235.137527 0.000000
vt 365.733734 220.441422 0.000000
vt 332.485229 -117.568764 0.000000
vt 299.236694 -117.568764 0.000000
vt 332.485229 -132.264862 0.000000
vt 365.733734 -132.264862 0.000000
vt 365.733734 -88.176575 0.000000
vt 332.485229 -88.176575 0.000000
vt 299.236694 -88.176575 0.000000
vt 332.485229 -102.872673 0.000000
vt 365.733734 -102.872673 0.000000
vt 332.485229 -44.088287 0.000000
vt 299.236694 -44.088287 0.000000
vt 332.485229 -58.784382 0.000000
vt 365.733734 -58.784382 0.000000
vt 332.485229 -14.696095 0.000000
vt 299.236694 -29.392191 0.000000
vt 332.485229 -29.392191 0.000000
vt 365.733734 -29.392191 0.000000
vt 332.485229 14.696095 0.000000
vt 299.236694 14.696095 0.000000
vt 299.236694 0.000000 0.000000
vt 332.485229 0.000000 0.000000
vt 365.733734 0.000000 0.000000
vt 365.733734 44.088287 0.000000
vt 332.485229 44.088287 0.000000
vt 299.236694 44.088287 0.000000
vt 332.485229 29.392191 0.000000
vt 365.733734 29.392191 0.000000
vt 332.485229 88.176575 0.000000
vt 299.236694 88.176575 0.000000
vt 332.485229 73.480476 0.000000
vt 365.733734 73.480476 0.000000
vt 332.485229 117.568764 0.000000
vt 299.236694 102.872673 0.000000
vt 332.485229 102.872673 0.000000
vt 365.733734 102.872673 0.000000
vt 332.485229 146.960953 0.000000
vt 299.236694 132.264862 0.000000
vt 332.485229 132.264862 0.000000
vt 365.733734 132.264862 0.000000
vt 365.733734 176.353149 0.000000
vt 332.485229 176.353149 0.000000
vt 299.236694 176.353149 0.000000
vt 299.236694 161.657043 0.000000
vt 332.485229 161.657043 0.000000
vt 365.733734 161.657043 0.000000
vt 332.485229 220.441422 0.000000
vt 299.236694 220.441422 0.000000
vt 299.236694 205.745346 0.000000
vt 332.485229 205.745346 0.000000
vt 365.733734 205.745346 0.000000
vt 332.485229 235.137527 0.000000
vt 365.733734 235.137527 0.000000
vt 332.485229 -220.441422 0.000000
vt 299.236694 -235.137527 0.000000
vt 332.485229 -235.137527 0.000000
vt 365.733734 -235.137527 0.000000
vt 365.733734 -191.049240 0.000000
vt 332.485229 -191.049240 0.000000
vt 299.236694 -191.049240 0.000000
vt 299.236694 -205.745346 0.000000
vt 332.485229 -205.745346 0.000000
vt 365.733734 -205.745346 0.000000
vt 332.485229 -146.960953 0.000000
vt 299.236694 -146.960953 0.000000
vt 299.236694 -161.657043 0.000000
vt 332.485229 -161.657043 0.000000
vt 365.733734 -161.657043 0.000000
vt 332.485229 -176.353149 0.000000
vt 332.485229 191.049240 0.000000
vt 332.485229 58.784382 0.000000
vt 299.236694 58.784382 0.000000
vt 332.485229 -73.480476 0.000000
vt 299.236694 -73.480476 0.000000
vt 365.733734 -249.833633 0.000000
vt 365.733734 -249.833633 0.000000
vt 398.982269 241.505859 0.000000
vt 398.982269 241.505859 0.000000
vt 398.982269 241.505859 0.000000
vt 365.733734 -249.833633 0.000000
vt 265.988190 -238.477570 0.000000
vt 265.988190 -238.477570 0.000000
vt 332.485229 -249.833633 0.000000
vt 332.485229 264.529724 0.000000
vt 265.988190 -238.477570 0.000000
vt 299.236694 249.833633 0.000000
vt 299.236694 249.833633 0.000000
vt 299.236694 249.833633 0.000000
vt 299.236694 249.833633 0.000000
vt 332.485229 -249.833633 0.000000
vt -147.417725 0.000000 0.000000
vt -147.417725 26.184021 0.000000
vt -147.417725 52.368042 0.000000
vt -147.417725 78.552063 0.000000
vt -147.417725 104.736084 0.000000
vt -147.417725 130.920105 0.000000
vt -147.417725 157.104126 0.000000
vt -147.417725 -209.472168 0.000000
vt -147.417725 -183.288147 0.000000
vt -147.417725 -157.104126 0.000000
vt -147.417725 -130.920105 0.000000
vt -147.417725 -104.736084 0.000000
vt -147.417725 -78.552063 0.000000
vt -147.417725 -52.368042 0.000000
vt -147.417725 -26.184021 0.000000
vt -251.677704 196.380157 0.000000
vt -251.677704 170.196136 0.000000
vt -251.677704 144.012115 0.000000
vt -251.677704 117.828094 0.000000
vt -251.677704 91.644073 0.000000
vt -251.677704 65.460052 0.000000
vt -251.677704 39.276031 0.000000
vt -251.677704 13.092010 0.000000
vt -251.677704 -13.092010 0.000000
vt -251.677704 -39.276031 0.000000
vt -251.677704 -65.460052 0.000000
vt -251.677704 -91.644073 0.000000
vt -251.677704 -117.828094 0.000000
vt -251.677704 -144.012115 0.000000
vt -251.677704 -170.196136 0.000000
vt -251.677704 -196.380157 0.000000
vt -251.677704 -196.380157 0.000000
vt -147.417725 183.288147 0.000000
vt -147.417725 183.288147 0.000000
vt -73.323486 -55.045284 0.000000
vt -51.913208 -79.769646 0.000000
vt -37.998539 -105.525879 0.000000
vt -30.140341 -132.019119 0.000000
vt -27.597342 -158.896881 0.000000
vt -30.140341 -185.774658 0.000000
vt -37.998539 -212.267899 0.000000
vt -51.913208 -238.024139 0.000000
vt -73.323486 -262.748474 0.000000
vt -73.323486 -300.059479 0.000000
vt -73.323486 -337.370422 0.000000
vt -73.323486 -374.681427 0.000000
vt -73.323486 -411.992401 0.000000
vt -73.323486 -449.303375 0.000000
vt -73.323486 504.619385 0.000000
vt -73.323486 467.308411 0.000000
vt -73.323486 429.997437 0.000000
vt -73.323486 392.686462 0.000000
vt -73.323486 355.375488 0.000000
vt -73.323486 318.064514 0.000000
vt -73.323486 280.753510 0.000000
vt -73.323486 243.442551 0.000000
vt -73.323486 206.131561 0.000000
vt -73.323486 168.820587 0.000000
vt -73.323486 131.509613 0.000000
vt -73.323486 94.198624 0.000000
vt -73.323486 56.887650 0.000000
vt -73.323486 19.576672 0.000000
vt -73.323486 -17.734308 0.000000
vt -0.000000 -495.616882 0.000000
vt -0.000000 -450.560791 0.000000
vt -0.000000 -405.504730 0.000000
vt -0.000000 -360.448608 0.000000
vt -0.000000 -315.392548 0.000000
vt -0.000000 -270.336487 0.000000
vt -0.000000 -225.280396 0.000000
vt -0.000000 -180.224304 0.000000
vt -0.000000 -135.168243 0.000000
vt -0.000000 -90.112152 0.000000
vt -0.000000 -45.056076 0.000000
vt -0.000000 0.000000 0.000000
vt -0.000000 45.056076 0.000000
vt -0.000000 90.112152 0.000000
vt -0.000000 135.168243 0.000000
vt -0.000000 180.224304 0.000000
vt -0.000000 225.280396 0.000000
vt -0.000000 270.336487 0.000000
vt -0.000000 315.392548 0.000000
vt -0.000000 360.448608 0.000000
vt -0.000000 405.504730 0.000000
vt -0.000000 450.560791 0.000000
vt -73.323486 -486.614410 0.000000
vt -73.323486 -486.614410 0.000000
vt -0.000000 495.616882 0.000000
vt -0.000000 495.616882 0.000000
vt 239.389359 102.268570 0.000000
vt 239.389359 129.540192 0.000000
vt 239.389359 156.811798 0.000000
vt 239.389359 -224.990845 0.000000
vt 239.389359 -197.719238 0.000000
vt 239.389359 -170.447617 0.000000
vt 239.389359 -143.175995 0.000000
vt 239.389359 -115.904381 0.000000
vt 239.389359 -88.632759 0.000000
vt 239.389359 -61.361145 0.000000
vt 239.389359 -34.089523 0.000000
vt 239.389359 -6.817905 0.000000
vt 239.389359 20.453714 0.000000
vt 239.389359 47.725334 0.000000
vt 239.389359 74.996956 0.000000
vt 199.491119 102.268570 0.000000
vt 199.491119 78.205376 0.000000
vt 199.491119 54.142181 0.000000
vt 199.491119 30.078991 0.000000
vt 199.491119 6.015798 0.000000
vt 199.491119 -18.047396 0.000000
vt 199.491119 -42.110588 0.000000
vt 199.491119 -66.173782 0.000000
vt 199.491119 -90.236969 0.000000
vt 199.491119 -114.300171 0.000000
vt 199.491119 -138.363358 0.000000
vt 199.491119 -162.426544 0.000000
vt 199.491119 222.584534 0.000000
vt 199.491119 198.521347 0.000000
vt 199.491119 174.458145 0.000000
vt 199.491119 150.394958 0.000000
vt 199.491119 126.331764 0.000000
vt 219.440231 -189.927338 0.000000
vt 219.440231 -146.097961 0.000000
vt 219.440231 -160.707748 0.000000
vt 219.440231 -131.488174 0.000000
vt 219.440231 -73.048981 0.000000
vt 219.440231 -58.439182 0.000000
vt 219.440231 -43.829384 0.000000
vt 219.440231 0.000000 0.000000
vt 219.440231 -14.609796 0.000000
vt 219.440231 14.609796 0.000000
vt 219.440231 29.219591 0.000000
vt 219.440231 73.048981 0.000000
vt 219.440231 58.439182 0.000000
vt 219.440231 131.488174 0.000000
vt 219.440231 146.097961 0.000000
vt 219.440231 189.927338 0.000000
vt 219.440231 175.317535 0.000000
vt 219.440231 102.268570 0.000000
vt 219.440231 116.878365 0.000000
vt 219.440231 160.707748 0.000000
vt 219.440231 204.537140 0.000000
vt 219.440231 -175.317535 0.000000
vt 219.440231 -102.268570 0.000000
vt 219.440231 -116.878365 0.000000
vt 219.440231 -87.658768 0.000000
vt 219.440231 -29.219591 0.000000
vt 219.440231 43.829384 0.000000
vt 219.440231 87.658768 0.000000
vt 239.389359 184.083435 0.000000
vt 219.440231 -204.537140 0.000000
vt 239.389359 184.083435 0.000000
vt 239.389359 184.083435 0.000000
vt 219.440231 -204.537140 0.000000
vt 199.491119 -186.489761 0.000000
vt 199.491119 -186.489761 0.000000
vt 219.440231 219.146942 0.000000
vt -73.323486 327.592468 0.000000
vt -73.323486 297.811310 0.000000
vt -73.323486 268.030182 0.000000
vt -73.323486 238.249054 0.000000
vt -73.323486 208.467926 0.000000
vt -73.323486 178.686798 0.000000
vt -73.323486 148.905655 0.000000
vt -73.323486 119.124527 0.000000
vt -73.323486 89.343399 0.000000
vt -73.323486 59.562263 0.000000
vt -73.323486 29.781132 0.000000
vt -73.323486 0.000000 0.000000
vt -73.323486 -29.781132 0.000000
vt -73.323486 -59.562263 0.000000
vt -73.323486 -89.343399 0.000000
vt -73.323486 -119.124527 0.000000
vt -73.323486 -148.905655 0.000000
vt -73.323486 -178.686798 0.000000
vt -73.323486 -208.467926 0.000000
vt -73.323486 -238.249054 0.000000
vt -73.323486 -268.030182 0.000000
vt -73.323486 -297.811310 0.000000
vt 52.905754 -327.592468 0.000000
vt 52.905754 -289.052155 0.000000
vt 52.905754 -250.511871 0.000000
vt 52.905754 -211.971588 0.000000
vt 52.905754 -173.431290 0.000000
vt 52.905754 -134.891006 0.000000
vt 52.905754 -96.350723 0.000000
vt 52.905754 -57.810436 0.000000
vt 52.905754 -19.270144 0.000000
vt 52.905754 19.270144 0.000000
vt 52.905754 57.810436 0.000000
vt 52.905754 96.350723 0.000000
vt 52.905754 134.891006 0.000000
vt 52.905754 173.431290 0.000000
vt 52.905754 211.971588 0.000000
vt 52.905754 250.511871 0.000000
vt 52.905754 289.052155 0.000000
vt -73.323486 -327.592468 0.000000
vt 52.905754 327.592468 0.000000
vt 52.905754 327.592468 0.000000
vt 304.799988 457.200012 0.000000
vt 0.000000 457.200012 0.000000
vt -304.799988 457.200012 0.000000
vt -304.799988 246.170990 0.000000
vt -687.750427 -174.120941 0.000000
vt -304.799988 -457.200012 0.000000
vt 0.000000 -457.200012 0.000000
vt 89.890846 -981.167175 0.000000
vt 485.482727 -1273.481323 0.000000
vt 1034.672485 -1273.481323 0.000000
vt 1223.478882 -663.408081 0.000000
vt 936.195496 -401.648804 0.000000
vt 854.931030 173.220627 0.000000
vt 498.186523 173.220627 0.000000
vt 0.000000 135.833221 0.000000
vt 38.268642 130.331024 0.000000
vt 73.436989 114.270180 0.000000
vt 102.655907 88.951843 0.000000
vt 123.558250 56.427162 0.000000
vt 134.450638 19.331083 0.000000
vt 134.450638 -19.331083 0.000000
vt 123.558250 -56.427162 0.000000
vt 102.655907 -88.951843 0.000000
vt 73.436989 -114.270180 0.000000
vt 38.268642 -130.331024 0.000000
vt 0.000000 -135.833221 0.000000
vt -38.268642 -130.331024 0.000000
vt -73.436989 -114.270180 0.000000
vt -102.655907 -88.951843 0.000000
vt -123.558250 -56.427162 0.000000
vt -134.450638 -19.331083 0.000000
vt -134.450638 19.331083 0.000000
vt -123.558250 56.427162 0.000000
vt -102.655907 88.951843 0.000000
vt -73.436989 114.270180 0.000000
vt -38.268642 130.331024 0.000000
vt 41.098610 29.941833 0.000000
vt 0.000000 0.000000 0.000000
vt 526.732544 0.000000 0.000000
vt 526.732544 30.637815 0.000000
vt 41.098610 30.637815 0.000000
vt 570.548279 30.637815 0.000000
vt 353.149506 30.637815 0.000000
vt 319.415680 41.342953 0.000000
vt 289.957123 48.300289 0.000000
vt 263.004486 52.229389 0.000000
vt 237.214127 53.500885 0.000000
vt 211.423767 52.229389 0.000000
vt 184.471146 48.300289 0.000000
vt 155.012589 41.342953 0.000000
vt 121.278755 30.637815 0.000000
vt 0.000000 30.637815 0.000000
vt 0.000000 0.000000 0.000000
vt 570.548279 0.000000 0.000000
vt 0.000000 304.703949 0.000000
vt 30.637815 304.703949 0.000000
vt 30.637815 304.799988 0.000000
vt 0.000000 304.799988 0.000000
vt -304.799988 0.000000 0.000000
vt -304.799988 -48.112705 0.000000
vt -304.799988 -96.225410 0.000000
vt -304.799988 -144.338120 0.000000
vt -304.799988 -192.450821 0.000000
vt -304.799988 -240.563522 0.000000
vt -304.799988 -288.676239 0.000000
vt -304.799988 -336.788940 0.000000
vt -304.799988 -384.901642 0.000000
vt -304.799988 -433.014343 0.000000
vt -304.799988 -481.127045 0.000000
vt -304.799988 -529.239746 0.000000
vt -304.799988 -577.352478 0.000000
vt -304.799988 -625.465149 0.000000
vt -304.799988 -673.577881 0.000000
vt -304.799988 -721.690552 0.000000
vt -0.000000 -721.690552 0.000000
vt -0.000000 -673.577881 0.000000
vt -0.000000 -625.465149 0.000000
vt -0.000000 -577.352478 0.000000
vt -0.000000 -529.239746 0.000000
vt -0.000000 -481.127045 0.000000
vt -0.000000 -433.014343 0.000000
vt -0.000000 -384.901642 0.000000
vt -0.000000 -336.788940 0.000000
vt -0.000000 -288.676239 0.000000
vt -0.000000 -240.563522 0.000000
vt -0.000000 -192.450821 0.000000
vt -0.000000 -144.338120 0.000000
vt -0.000000 -96.225410 0.000000
vt -0.000000 -48.112705 0.000000
vt -0.000000 0.000000 0.000000
vt 176.587326 304.799988 0.000000
vt 0.000000 304.799988 0.000000
vt 0.000000 304.703949 0.000000
vt -526.706360 299.451172 0.000000
vt -737.812683 70.395088 0.000000
vt -482.309326 -304.799988 0.000000
vt 0.000000 0.000000 0.000000
vt 176.587326 0.000000 0.000000
vt 304.799988 7.930642 0.000000
vt 304.799988 52.073795 0.000000
vt 304.799988 96.216957 0.000000
vt 304.799988 140.360107 0.000000
vt 304.799988 184.503265 0.000000
vt 304.799988 228.646408 0.000000
vt 304.799988 272.789581 0.000000
vt 304.799988 316.932739 0.000000
vt 304.799988 361.075897 0.000000
vt 304.799988 405.219055 0.000000
vt 304.799988 449.362183 0.000000
vt 304.799988 493.505341 0.000000
vt 304.799988 537.648560 0.000000
vt 304.799988 581.791687 0.000000
vt 304.799988 625.934814 0.000000
vt 0.000000 625.934814 0.000000
vt 0.000000 581.791687 0.000000
vt 0.000000 537.648560 0.000000
vt 0.000000 493.505341 0.000000
vt 0.000000 449.362183 0.000000
vt 0.000000 405.219055 0.000000
vt 0.000000 361.075897 0.000000
vt 0.000000 316.932739 0.000000
vt 0.000000 272.789581 0.000000
vt 0.000000 228.646408 0.000000
vt 0.000000 184.503265 0.000000
vt 0.000000 140.360107 0.000000
vt 0.000000 96.216957 0.000000
vt 0.000000 52.073795 0.000000
vt 0.000000 7.930642 0.000000
vt -26.566961 229.721237 0.000000
vt -203.154282 229.721237 0.000000
vt -203.154282 199.083435 0.000000
vt -18.638412 199.083435 0.000000
vt 24.916004 192.474869 0.000000
vt 65.953590 176.456848 0.000000
vt 102.468147 151.812439 0.000000
vt 132.674591 119.746399 0.000000
vt 155.096252 81.826355 0.000000
vt 168.636978 39.906086 0.000000
vt 172.634827 -3.965059 0.000000
vt 166.894348 -47.642368 0.000000
vt 151.696182 -88.990593 0.000000
vt 127.783310 -125.988365 0.000000
vt 96.324760 -156.826965 0.000000
vt 58.858429 -179.998825 0.000000
vt 17.215937 -194.371124 0.000000
vt -26.566961 -199.241241 0.000000
vt -26.566961 -229.721237 0.000000
vt 21.194771 -224.701279 0.000000
vt 66.869087 -209.860794 0.000000
vt 108.459801 -185.848389 0.000000
vt 144.149185 -153.713516 0.000000
vt 172.377472 -114.860619 0.000000
vt 191.910919 -70.987770 0.000000
vt 201.895844 -24.012409 0.000000
vt 201.895844 24.012409 0.000000
vt 191.910919 70.987770 0.000000
vt 172.377472 114.860619 0.000000
vt 144.149185 153.713516 0.000000
vt 108.459801 185.848389 0.000000
vt 66.869087 209.860794 0.000000
vt 21.194771 224.701279 0.000000
vt 304.799988 30.480000 0.000000
vt 304.799988 0.000000 0.000000
vt 609.599976 0.000000 0.000000
vt 609.599976 30.480000 0.000000
vt 304.799988 457.200012 0.000000
vt 0.000000 457.200012 0.000000
vt -304.799988 457.200012 0.000000
vt -498.186523 173.220627 0.000000
vt -854.931030 173.220627 0.000000
vt -936.195496 -401.648804 0.000000
vt -1223.478882 -663.408081 0.000000
vt -1034.672485 -1273.481323 0.000000
vt -485.482727 -1273.481323 0.000000
vt -89.890846 -981.167175 0.000000
vt 0.000000 -457.200012 0.000000
vt 304.799988 -457.200012 0.000000
vt 687.750427 -174.120941 0.000000
vt 304.799988 246.170990 0.000000
vn 1.429685 0.000000 2.099428
vn 1.429685 0.000000 2.099428
vn 1.429685 0.000000 2.099428
vn 1.429685 0.000000 2.099428
vn 2.540000 0.000000 0.000000
vn 2.540000 0.000000 0.000000
vn 2.540000 0.000000 0.000000
vn 2.540000 0.000000 0.000000
vn 0.355524 0.000000 2.514996
vn 0.355524 0.000000 2.514996
vn 0.355524 0.000000 2.514996
vn 0.355524 0.000000 2.514996
vn 1.877519 0.000000 1.710708
vn 1.877519 0.000000 1.710708
vn 1.877519 0.000000 1.710708
vn 1.877519 0.000000 1.710708
vn -0.750943 0.000000 2.426455
vn -0.750943 0.000000 2.426455
vn -0.750943 0.000000 2.426455
vn -0.750943 0.000000 2.426455
vn -2.540000 0.000000 0.000000
vn -2.540000 0.000000 0.000000
vn -2.540000 0.000000 0.000000
vn -2.540000 0.000000 0.000000
vn -2.042804 0.000000 -1.509487
vn -2.042804 0.000000 -1.509487
vn -2.042804 0.000000 -1.509487
vn -2.042804 0.000000 -1.509487
vn -0.429483 0.000000 -2.503426
vn -0.429483 0.000000 -2.503426
vn -0.429483 0.000000 -2.503426
vn -0.429483 0.000000 -2.503426
vn -2.540000 0.000000 0.000000
vn -2.540000 0.000000 0.000000
vn -2.540000 0.000000 0.000000
vn -2.540000 0.000000 0.000000
vn 1.721378 0.000000 -1.867741
vn 1.721378 0.000000 -1.867741
vn 1.721378 0.000000 -1.867741
vn 1.721378 0.000000 -1.867741
vn 1.721378 0.000000 -1.867741
vn 0.702258 0.994396 -2.229262
vn 0.702258 0.994396 -2.229262
vn 0.702258 0.994396 -2.229262
vn 0.702258 0.994396 -2.229262
vn -1.320693 1.796051 -1.217198
vn -1.320693 1.796051 -1.217198
vn -1.320693 1.796051 -1.217198
vn -1.320693 1.796051 -1.217198
vn -1.912723 0.291186 1.645692
vn -1.912723 0.291186 1.645692
vn -1.912723 0.291186 1.645692
vn -1.912723 0.291186 1.645692
vn 1.320693 -1.796051 1.217198
vn 1.320693 -1.796051 1.217198
vn 1.320693 -1.796051 1.217198
vn 1.320693 -1.796051 1.217198
vn -1.320693 -1.796051 -1.217198
vn -1.320693 -1.796051 -1.217198
vn -1.320693 -1.796051 -1.217198
vn -1.320693 -1.796051 -1.217198
vn -1.320693 -1.796051 -1.217198
vn -2.099428 0.000000 1.429685
vn -2.099428 0.000000 1.429685
vn -2.099428 0.000000 1.429685
vn -2.099428 0.000000 1.429685
vn 0.000000 -2.540000 0.000000
vn 0.000000 -2.540000 0.000000
vn 0.000000 -2.540000 0.000000
vn 0.000000 -2.540000 0.000000
vn 0.000000 -2.540000 0.000000
vn 0.000000 -2.540000 0.000000
vn 0.000000 -2.540000 0.000000
vn 0.000000 -2.540000 0.000000
vn 0.000000 -2.540000 0.000000
vn 0.000000 -2.540000 0.000000
vn 0.000000 -2.540000 0.000000
vn 0.000000 -2.540000 0.000000
vn 0.000000 -2.540000 0.000000
vn 0.000000 -2.540000 0.000000
vn 0.000000 -2.540000 0.000000
vn 0.000000 -2.540000 0.000000
vn 0.000000 -2.540000 0.000000
vn 0.000000 -2.540000 0.000000
vn 0.000000 -2.540000 0.000000
vn 0.000000 -2.540000 0.000000
vn 0.000000 -2.540000 0.000000
vn 0.000000 -2.540000 0.000000
vn 0.000000 -2.540000 0.000000
vn 0.000000 -2.540000 0.000000
vn 0.000000 -2.540000 0.000000
vn 0.000000 -2.540000 0.000000
vn 0.000000 -2.540000 0.000000
vn 0.000000 -2.540000 0.000000
vn 0.000000 -2.540000 0.000000
vn 0.000000 -2.540000 0.000000
vn 0.000000 -2.540000 0.000000
vn 1.710708 0.000000 -1.877519
vn 1.710708 0.000000 -1.877519
vn 1.710708 0.000000 -1.877519
vn 1.710708 0.000000 -1.877519
vn -2.042534 0.000000 -1.509852
vn -2.042534 0.000000 -1.509852
vn -2.042534 0.000000 -1.509852
vn -2.042534 0.000000 -1.509852
vn 0.000000 0.000000 -2.540000
vn 0.000000 0.000000 -2.540000
vn 0.000000 0.000000 -2.540000
vn 0.000000 0.000000 -2.540000
vn 0.000000 0.000000 -2.540000
vn 0.000000 0.000000 -2.540000
vn 0.000000 0.000000 -2.540000
vn 0.000000 0.000000 -2.540000
vn 0.000000 0.000000 -2.540000
vn 0.000000 0.000000 -2.540000
vn 0.000000 0.000000 -2.540000
vn 0.000000 0.000000 -2.540000
vn 0.000000 0.000000 -2.540000
vn 0.000000 0.000000 -2.540000
vn 0.000000 0.000000 -2.540000
vn 0.000000 0.000000 -2.540000
vn 0.000000 0.000000 -2.540000
vn 0.000000 0.000000 -2.540000
vn 0.000000 0.000000 -2.540000
vn 0.000000 0.000000 -2.540000
vn 0.000000 0.000000 -2.540000
vn 0.000000 0.000000 -2.540000
vn 0.000000 0.000000 -2.540000
vn 0.000000 0.000000 -2.540000
vn 0.000000 0.000000 -2.540000
vn 0.000000 0.000000 -2.540000
vn 0.000000 0.000000 -2.540000
vn 0.000000 0.000000 -2.540000
vn 0.000000 0.000000 -2.540000
vn 0.000000 0.000000 -2.540000
vn 0.000000 0.000000 -2.540000
vn 0.000000 0.000000 -2.540000
vn 0.000000 0.000000 -2.540000
vn 0.000000 0.000000 -2.540000
vn 0.000000 0.000000 -2.540000
vn -2.540000 0.000000 0.000000
vn -2.320405 0.000000 1.033111
vn -1.699592 0.000000 1.887588
vn -0.784903 0.000000 2.415684
vn 0.265502 0.000000 2.526086
vn 1.270000 0.000000 2.199704
vn 2.054903 0.000000 1.492975
vn 2.484495 0.000000 0.528096
vn 2.484495 0.000000 -0.528096
vn 2.054903 0.000000 -1.492975
vn 1.270000 0.000000 -2.199704
vn 0.265502 0.000000 -2.526086
vn -0.784903 0.000000 -2.415684
vn -1.699592 0.000000 -1.887588
vn -2.320405 0.000000 -1.033111
vn -1.270000 -2.199704 0.000000
vn -1.218556 -2.199704 -0.357800
vn -1.068392 -2.199704 -0.686614
vn -0.831673 -2.199704 -0.959802
vn -0.527577 -2.199704 -1.155233
vn -0.180740 -2.199704 -1.257073
vn 0.180740 -2.199704 -1.257073
vn 0.527577 -2.199704 -1.155233
vn 0.831673 -2.199704 -0.959802
vn 1.068392 -2.199704 -0.686614
vn 1.218556 -2.199704 -0.357800
vn 1.270000 -2.199704 0.000000
vn 1.218556 -2.199704 0.357800
vn 1.068392 -2.199704 0.686614
vn 0.831673 -2.199704 0.959802
vn 0.527577 -2.199704 1.155233
vn 0.180740 -2.199704 1.257073
vn -0.180740 -2.199704 1.257073
vn -0.527577 -2.199704 1.155233
vn -0.831673 -2.199704 0.959802
vn -1.068392 -2.199704 0.686614
vn -1.218556 -2.199704 0.357800
vn 0.000000 -0.657400 -2.453452
vn 0.000000 -1.270000 -2.199704
vn 0.000000 -1.796051 -1.796051
vn -0.648809 -1.796051 -1.674768
vn -0.886289 -0.657400 -2.287776
vn -1.433280 -1.796051 -1.082363
vn -1.957897 -0.657400 -1.478535
vn -1.788390 -1.796051 -0.165719
vn -2.359793 -0.657400 -0.671419
vn -1.727488 -1.796051 0.491513
vn -2.442986 -0.657400 0.226376
vn -1.209992 -1.796051 1.327298
vn -1.957897 -0.657400 1.478535
vn -0.330024 -1.796051 1.765470
vn -1.291576 -0.657400 2.085967
vn -0.450821 -0.657400 2.411677
vn 0.648809 -1.796051 1.674768
vn 0.450821 -0.657400 2.411677
vn 1.433280 -1.796051 1.082363
vn 1.652880 -0.657400 1.813123
vn 1.788390 -1.796051 0.165719
vn 2.196240 -0.657400 1.093597
vn 1.727488 -1.796051 -0.491513
vn 2.442986 -0.657400 0.226376
vn 2.359793 -0.657400 -0.671419
vn 1.209992 -1.796051 -1.327298
vn 1.652880 -0.657400 -1.813123
vn 0.330024 -1.796051 -1.765470
vn 0.886289 -0.657400 -2.287776
vn -2.190321 -1.270000 0.202963
vn -1.788390 -1.796051 0.165719
vn -2.190321 -1.270000 -0.202963
vn -2.442986 -0.657400 -0.226376
vn -2.196240 -0.657400 1.093597
vn -1.969095 -1.270000 0.980493
vn -1.607759 -1.796051 0.800569
vn -2.115732 -1.270000 0.601978
vn -2.359793 -0.657400 0.671419
vn -1.157995 -1.270000 1.870227
vn -0.945499 -1.796051 1.527034
vn -1.481931 -1.270000 1.625601
vn -1.652880 -0.657400 1.813123
vn -0.404195 -1.270000 2.162250
vn -0.648809 -1.796051 1.674768
vn -0.794625 -1.270000 2.051163
vn -0.886289 -0.657400 2.287776
vn 0.404195 -1.270000 2.162250
vn 0.330024 -1.796051 1.765470
vn 0.000000 -1.796051 1.796051
vn 0.000000 -1.270000 2.199704
vn 0.000000 -0.657400 2.453452
vn 1.291576 -0.657400 2.085967
vn 1.157995 -1.270000 1.870227
vn 0.945499 -1.796051 1.527034
vn 0.794625 -1.270000 2.051163
vn 0.886289 -0.657400 2.287776
vn 1.969095 -1.270000 0.980493
vn 1.607759 -1.796051 0.800569
vn 1.755402 -1.270000 1.325618
vn 1.957897 -0.657400 1.478535
vn 2.190321 -1.270000 0.202963
vn 1.727488 -1.796051 0.491513
vn 2.115732 -1.270000 0.601978
vn 2.359793 -0.657400 0.671419
vn 2.115732 -1.270000 -0.601978
vn 1.788390 -1.796051 -0.165719
vn 2.190321 -1.270000 -0.202963
vn 2.442986 -0.657400 -0.226376
vn 1.957897 -0.657400 -1.478535
vn 1.755402 -1.270000 -1.325618
vn 1.433280 -1.796051 -1.082363
vn 1.607759 -1.796051 -0.800569
vn 1.969095 -1.270000 -0.980493
vn 2.196240 -0.657400 -1.093597
vn 0.794625 -1.270000 -2.051163
vn 0.648809 -1.796051 -1.674768
vn 0.945499 -1.796051 -1.527034
vn 1.157995 -1.270000 -1.870227
vn 1.291576 -0.657400 -2.085967
vn 0.404195 -1.270000 -2.162250
vn 0.450821 -0.657400 -2.411677
vn -0.794625 -1.270000 -2.051163
vn -0.330024 -1.796051 -1.765470
vn -0.404195 -1.270000 -2.162250
vn -0.450821 -0.657400 -2.411677
vn -1.652880 -0.657400 -1.813123
vn -1.481931 -1.270000 -1.625601
vn -1.209992 -1.796051 -1.327298
vn -0.945499 -1.796051 -1.527034
vn -1.157995 -1.270000 -1.870227
vn -1.291576 -0.657400 -2.085967
vn -2.115732 -1.270000 -0.601978
vn -1.727488 -1.796051 -0.491513
vn -1.607759 -1.796051 -0.800569
vn -1.969095 -1.270000 -0.980493
vn -2.196240 -0.657400 -1.093597
vn -1.755402 -1.270000 -1.325618
vn 1.481931 -1.270000 -1.625601
vn 1.481931 -1.270000 1.625601
vn 1.209992 -1.796051 1.327298
vn -1.755402 -1.270000 1.325618
vn -1.433280 -1.796051 1.082363
vn 0.000000 -0.657400 -2.453452
vn 0.000000 -0.657400 -2.453452
vn 0.265502 0.000000 -2.526086
vn 0.265502 0.000000 -2.526086
vn 0.265502 0.000000 -2.526086
vn 0.000000 -0.657400 -2.453452
vn -0.180740 -2.199704 -1.257073
vn -0.180740 -2.199704 -1.257073
vn 0.000000 -1.270000 -2.199704
vn -0.404195 -1.270000 -2.162250
vn -0.180740 -2.199704 -1.257073
vn 0.000000 -1.796051 -1.796051
vn 0.000000 -1.796051 -1.796051
vn 0.000000 -1.796051 -1.796051
vn 0.000000 -1.796051 -1.796051
vn 0.000000 -1.270000 -2.199704
vn 2.540000 0.000000 0.000000
vn 2.320405 0.000000 -1.033111
vn 1.699592 0.000000 -1.887588
vn 0.784903 0.000000 -2.415684
vn -0.265502 0.000000 -2.526086
vn -1.270000 0.000000 -2.199704
vn -2.054903 0.000000 -1.492975
vn -2.484495 0.000000 -0.528096
vn -2.484495 0.000000 0.528096
vn -2.054903 0.000000 1.492975
vn -1.270000 0.000000 2.199704
vn -0.265502 0.000000 2.526086
vn 0.784903 0.000000 2.415684
vn 1.699592 0.000000 1.887588
vn 2.320405 0.000000 1.033111
vn -2.540000 0.000000 0.000000
vn -2.320405 0.000000 -1.033111
vn -1.699592 0.000000 -1.887588
vn -0.784903 0.000000 -2.415684
vn 0.265502 0.000000 -2.526086
vn 1.270000 0.000000 -2.199704
vn 2.054903 0.000000 -1.492975
vn 2.484495 0.000000 -0.528096
vn 2.484495 0.000000 0.528096
vn 2.054903 0.000000 1.492975
vn 1.270000 0.000000 2.199704
vn 0.265502 0.000000 2.526086
vn -0.784903 0.000000 2.415684
vn -1.699592 0.000000 1.887588
vn -2.320405 0.000000 1.033111
vn -2.540000 0.000000 0.000000
vn -2.540000 0.000000 0.000000
vn -2.484495 0.000000 -0.528096
vn -2.484495 0.000000 -0.528096
vn 1.193474 -2.199704 0.434190
vn 1.111078 -2.199704 0.615147
vn 0.996319 -2.199704 0.787559
vn 0.850665 -2.199704 0.943010
vn 0.678463 -2.199704 1.073586
vn 0.486615 -2.199704 1.173075
vn 0.283695 -2.199704 1.237908
vn 0.078715 -2.199704 1.267558
vn -0.120091 -2.199704 1.264309
vn -0.412984 -2.199704 1.200976
vn -0.682884 -2.199704 1.070780
vn -0.914765 -2.199704 0.880968
vn -1.095717 -2.199704 0.642109
vn -1.215666 -2.199704 0.367501
vn -1.267933 -2.199704 0.072433
vn -1.249609 -2.199704 -0.226668
vn -1.161713 -2.199704 -0.513150
vn -1.009140 -2.199704 -0.771062
vn -0.800384 -2.199704 -0.986046
vn -0.547066 -2.199704 -1.146132
vn -0.263292 -2.199704 -1.242408
vn 0.035142 -2.199704 -1.269514
vn 0.331619 -2.199704 -1.225940
vn 0.609633 -2.199704 -1.114113
vn 0.853706 -2.199704 -0.940258
vn 1.050250 -2.199704 -0.714055
vn 1.188322 -2.199704 -0.448097
vn 1.260234 -2.199704 -0.157192
vn 1.261984 -2.199704 0.142465
vn -1.270000 -2.199704 0.000000
vn -1.218556 -2.199704 0.357800
vn -1.068392 -2.199704 0.686614
vn -0.831673 -2.199704 0.959802
vn -0.527577 -2.199704 1.155233
vn -0.180740 -2.199704 1.257073
vn 0.180740 -2.199704 1.257073
vn 0.527577 -2.199704 1.155233
vn 0.831673 -2.199704 0.959802
vn 1.068392 -2.199704 0.686614
vn 1.218556 -2.199704 0.357800
vn 1.270000 -2.199704 0.000000
vn 1.218556 -2.199704 -0.357800
vn 1.068392 -2.199704 -0.686614
vn 0.831673 -2.199704 -0.959802
vn 0.527577 -2.199704 -1.155233
vn 0.180740 -2.199704 -1.257073
vn -0.180740 -2.199704 -1.257073
vn -0.527577 -2.199704 -1.155233
vn -0.831673 -2.199704 -0.959802
vn -1.068392 -2.199704 -0.686614
vn -1.218556 -2.199704 -0.357800
vn -1.267933 -2.199704 0.072433
vn -1.267933 -2.199704 0.072433
vn -1.270000 -2.199704 0.000000
vn -1.270000 -2.199704 0.000000
vn 2.540000 0.000000 0.000000
vn 2.320405 0.000000 1.033111
vn 1.699592 0.000000 1.887588
vn 0.784903 0.000000 2.415684
vn -0.265502 0.000000 2.526086
vn -1.270000 0.000000 2.199704
vn -2.054903 0.000000 1.492975
vn -2.484495 0.000000 0.528096
vn -2.484495 0.000000 -0.528096
vn -2.054903 0.000000 -1.492975
vn -1.270000 0.000000 -2.199704
vn -0.265502 0.000000 -2.526086
vn 0.784903 0.000000 -2.415684
vn 1.699592 0.000000 -1.887588
vn 2.320405 0.000000 -1.033111
vn 2.199704 1.270000 0.000000
vn 2.051163 1.270000 -0.794625
vn 1.625601 1.270000 -1.481931
vn 0.980493 1.270000 -1.969095
vn 0.202963 1.270000 -2.190321
vn -0.601978 1.270000 -2.115732
vn -1.325618 1.270000 -1.755402
vn -1.870227 1.270000 -1.157995
vn -2.162250 1.270000 -0.404195
vn -2.162250 1.270000 0.404195
vn -1.870227 1.270000 1.157995
vn -1.325618 1.270000 1.755402
vn -0.601978 1.270000 2.115732
vn 0.202963 1.270000 2.190321
vn 0.980493 1.270000 1.969095
vn 1.625601 1.270000 1.481931
vn 2.051163 1.270000 0.794625
vn -0.545944 0.657400 2.391938
vn -1.918186 0.657400 1.529702
vn -1.529702 0.657400 1.918186
vn -2.210484 0.657400 1.064513
vn -2.210484 0.657400 -1.064513
vn -1.918186 0.657400 -1.529702
vn -1.529702 0.657400 -1.918186
vn 0.000000 0.657400 -2.453452
vn -0.545944 0.657400 -2.391938
vn 0.545944 0.657400 -2.391938
vn 1.064513 0.657400 -2.210484
vn 2.210484 0.657400 -1.064513
vn 1.918186 0.657400 -1.529702
vn 2.210484 0.657400 1.064513
vn 1.918186 0.657400 1.529702
vn 0.545944 0.657400 2.391938
vn 1.064513 0.657400 2.210484
vn 2.453452 0.657400 0.000000
vn 2.391938 0.657400 0.545944
vn 1.529702 0.657400 1.918186
vn 0.000000 0.657400 2.453452
vn -1.064513 0.657400 2.210484
vn -2.453452 0.657400 0.000000
vn -2.391938 0.657400 0.545944
vn -2.391938 0.657400 -0.545944
vn -1.064513 0.657400 -2.210484
vn 1.529702 0.657400 -1.918186
vn 2.391938 0.657400 -0.545944
vn 0.784903 0.000000 2.415684
vn 0.000000 0.657400 2.453452
vn 0.784903 0.000000 2.415684
vn 0.784903 0.000000 2.415684
vn 0.000000 0.657400 2.453452
vn -0.601978 1.270000 2.115732
vn -0.601978 1.270000 2.115732
vn -0.545944 0.657400 2.391938
vn 2.199704 1.270000 0.000000
vn 2.110601 1.270000 -0.619728
vn 1.850509 1.270000 -1.189250
vn 1.440500 1.270000 -1.662426
vn 0.913790 1.270000 -2.000922
vn 0.313051 1.270000 -2.177315
vn -0.313051 1.270000 -2.177315
vn -0.913790 1.270000 -2.000922
vn -1.440500 1.270000 -1.662426
vn -1.850509 1.270000 -1.189250
vn -2.110601 1.270000 -0.619728
vn -2.199704 1.270000 0.000000
vn -2.110601 1.270000 0.619728
vn -1.850509 1.270000 1.189250
vn -1.440500 1.270000 1.662426
vn -0.913790 1.270000 2.000922
vn -0.313051 1.270000 2.177315
vn 0.313051 1.270000 2.177315
vn 0.913790 1.270000 2.000922
vn 1.440500 1.270000 1.662426
vn 1.850509 1.270000 1.189250
vn 2.110601 1.270000 0.619728
vn 2.199704 1.270000 0.000000
vn 2.051163 1.270000 0.794625
vn 1.625601 1.270000 1.481931
vn 0.980493 1.270000 1.969095
vn 0.202963 1.270000 2.190321
vn -0.601978 1.270000 2.115732
vn -1.325618 1.270000 1.755402
vn -1.870227 1.270000 1.157995
vn -2.162250 1.270000 0.404195
vn -2.162250 1.270000 -0.404195
vn -1.870227 1.270000 -1.157995
vn -1.325618 1.270000 -1.755402
vn -0.601978 1.270000 -2.115732
vn 0.202963 1.270000 -2.190321
vn 0.980493 1.270000 -1.969095
vn 1.625601 1.270000 -1.481931
vn 2.051163 1.270000 -0.794625
vn 2.199704 1.270000 0.000000
vn 2.199704 1.270000 0.000000
vn 2.199704 1.270000 0.000000
vn 0.000000 2.540000 0.000000
vn 0.000000 2.540000 0.000000
vn 0.000000 2.540000 0.000000
vn 0.000000 2.540000 0.000000
vn 0.000000 2.540000 0.000000
vn 0.000000 2.540000 0.000000
vn 0.000000 2.540000 0.000000
vn 0.000000 2.540000 0.000000
vn 0.000000 2.540000 0.000000
vn 0.000000 2.540000 0.000000
vn 0.000000 2.540000 0.000000
vn 0.000000 2.540000 0.000000
vn 0.000000 2.540000 0.000000
vn 0.000000 2.540000 0.000000
vn 0.000000 2.540000 0.000000
vn 0.000000 2.540000 0.000000
vn 0.000000 2.540000 0.000000
vn 0.000000 2.540000 0.000000
vn 0.000000 2.540000 0.000000
vn 0.000000 2.540000 0.000000
vn 0.000000 2.540000 0.000000
vn 0.000000 2.540000 0.000000
vn 0.000000 2.540000 0.000000
vn 0.000000 2.540000 0.000000
vn 0.000000 2.540000 0.000000
vn 0.000000 2.540000 0.000000
vn 0.000000 2.540000 0.000000
vn 0.000000 2.540000 0.000000
vn 0.000000 2.540000 0.000000
vn 0.000000 2.540000 0.000000
vn 0.000000 2.540000 0.000000
vn 0.000000 2.540000 0.000000
vn 0.000000 2.540000 0.000000
vn 0.000000 2.540000 0.000000
vn 0.000000 2.540000 0.000000
vn 0.000000 2.540000 0.000000
vn -0.025330 0.000000 -2.539874
vn -0.025330 0.000000 -2.539874
vn -0.025330 0.000000 -2.539874
vn -0.025330 0.000000 -2.539874
vn -0.025330 0.000000 -2.539874
vn 1.356926 0.000000 2.147173
vn 1.356926 0.000000 2.147173
vn 1.356926 0.000000 2.147173
vn 1.356926 0.000000 2.147173
vn 1.356926 0.000000 2.147173
vn 1.356926 0.000000 2.147173
vn 1.356926 0.000000 2.147173
vn 1.356926 0.000000 2.147173
vn 1.356926 0.000000 2.147173
vn 1.356926 0.000000 2.147173
vn 1.356926 0.000000 2.147173
vn 1.356926 0.000000 2.147173
vn 1.356926 0.000000 2.147173
vn -2.540000 0.000000 0.000000
vn -2.540000 0.000000 0.000000
vn -2.540000 0.000000 0.000000
vn -2.540000 0.000000 0.000000
vn 0.000000 -2.540000 0.000000
vn 0.528096 -2.484495 0.000000
vn 1.033111 -2.320405 0.000000
vn 1.492975 -2.054903 0.000000
vn 1.887588 -1.699592 0.000000
vn 2.199704 -1.270000 0.000000
vn 2.415684 -0.784903 0.000000
vn 2.526086 -0.265502 0.000000
vn 2.526086 0.265502 0.000000
vn 2.415684 0.784903 0.000000
vn 2.199704 1.270000 0.000000
vn 1.887588 1.699592 0.000000
vn 1.492975 2.054903 0.000000
vn 1.033111 2.320405 0.000000
vn 0.528096 2.484495 0.000000
vn 0.000000 2.540000 0.000000
vn 0.000000 2.540000 0.000000
vn 0.528096 2.484495 0.000000
vn 1.033111 2.320405 0.000000
vn 1.492975 2.054903 0.000000
vn 1.887588 1.699592 0.000000
vn 2.199704 1.270000 0.000000
vn 2.415684 0.784903 0.000000
vn 2.526086 0.265502 0.000000
vn 2.526086 -0.265502 0.000000
vn 2.415684 -0.784903 0.000000
vn 2.199704 -1.270000 0.000000
vn 1.887588 -1.699592 0.000000
vn 1.492975 -2.054903 0.000000
vn 1.033111 -2.320405 0.000000
vn 0.528096 -2.484495 0.000000
vn 0.000000 -2.540000 0.000000
vn 0.000000 2.540000 0.000000
vn 0.000000 2.540000 0.000000
vn 0.000000 2.540000 0.000000
vn 0.000000 2.540000 0.000000
vn 0.000000 2.540000 0.000000
vn 0.000000 2.540000 0.000000
vn 0.000000 2.540000 0.000000
vn 0.000000 2.540000 0.000000
vn -0.101076 -2.537988 0.000000
vn -0.656324 -2.453740 0.000000
vn -1.179486 -2.249536 0.000000
vn -1.644986 -1.935360 0.000000
vn -2.030069 -1.526571 0.000000
vn -2.315909 -1.043152 0.000000
vn -2.488531 -0.508737 0.000000
vn -2.539497 0.050548 0.000000
vn -2.466315 0.607362 0.000000
vn -2.272564 1.134485 0.000000
vn -1.967713 1.606146 0.000000
vn -1.566668 1.999287 0.000000
vn -1.089034 2.294691 0.000000
vn -0.558160 2.477914 0.000000
vn 0.000000 2.540000 0.000000
vn 0.000000 2.540000 0.000000
vn -0.558160 2.477914 0.000000
vn -1.089034 2.294691 0.000000
vn -1.566668 1.999287 0.000000
vn -1.967713 1.606146 0.000000
vn -2.272564 1.134485 0.000000
vn -2.466315 0.607362 0.000000
vn -2.539497 0.050548 0.000000
vn -2.488531 -0.508737 0.000000
vn -2.315909 -1.043152 0.000000
vn -2.030069 -1.526571 0.000000
vn -1.644986 -1.935360 0.000000
vn -1.179486 -2.249536 0.000000
vn -0.656324 -2.453740 0.000000
vn -0.101076 -2.537988 0.000000
vn 0.000000 0.000000 2.540000
vn 0.000000 0.000000 2.540000
vn 0.000000 0.000000 2.540000
vn 0.000000 0.000000 2.540000
vn 0.000000 0.000000 2.540000
vn 0.000000 0.000000 2.540000
vn 0.000000 0.000000 2.540000
vn 0.000000 0.000000 2.540000
vn 0.000000 0.000000 2.540000
vn 0.000000 0.000000 2.540000
vn 0.000000 0.000000 2.540000
vn 0.000000 0.000000 2.540000
vn 0.000000 0.000000 2.540000
vn 0.000000 0.000000 2.540000
vn 0.000000 0.000000 2.540000
vn 0.000000 0.000000 2.540000
vn 0.000000 0.000000 2.540000
vn 0.000000 0.000000 2.540000
vn 0.000000 0.000000 2.540000
vn 0.000000 0.000000 2.540000
vn 0.000000 0.000000 2.540000
vn 0.000000 0.000000 2.540000
vn 0.000000 0.000000 2.540000
vn 0.000000 0.000000 2.540000
vn 0.000000 0.000000 2.540000
vn 0.000000 0.000000 2.540000
vn 0.000000 0.000000 2.540000
vn 0.000000 0.000000 2.540000
vn 0.000000 0.000000 2.540000
vn 0.000000 0.000000 2.540000
vn 0.000000 0.000000 2.540000
vn 0.000000 0.000000 2.540000
vn 0.000000 0.000000 2.540000
vn 2.540000 0.000000 0.000000
vn 2.540000 0.000000 0.000000
vn 2.540000 0.000000 0.000000
vn 2.540000 0.000000 0.000000
vn 0.000000 -2.540000 0.000000
vn 0.000000 -2.540000 0.000000
vn 0.000000 -2.540000 0.000000
vn 0.000000 -2.540000 0.000000
vn 0.000000 -2.540000 0.000000
vn 0.000000 -2.540000 0.000000
vn 0.000000 -2.540000 0.000000
vn 0.000000 -2.540000 0.000000
vn 0.000000 -2.540000 0.000000
vn 0.000000 -2.540000 0.000000
vn 0.000000 -2.540000 0.000000
vn 0.000000 -2.540000 0.000000
vn 0.000000 -2.540000 0.000000
vn 0.000000 -2.540000 0.000000
usemtl 191,191,191
f 276/1/1 294/2/2 278/4/4
f 278/4/4 294/2/2 297/3/3
f 277/5/5 276/6/6 279/8/8
f 279/8/8 276/6/6 278/7/7
f 18/9/9 277/10/10 19/12/12
f 19/12/12 277/10/10 279/11/11
f 7/13/13 18/14/14 8/16/16
f 8/16/16 18/14/14 19/15/15
f 2/17/17 7/18/18 4/20/20
f 4/20/20 7/18/18 8/19/19
f 1/21/21 2/22/22 3/24/24
f 3/24/24 2/22/22 4/23/23
f 5/25/25 1/26/26 6/28/28
f 6/28/28 1/26/26 3/27/27
f 12/29/29 5/30/30 14/32/32
f 14/32/32 5/30/30 6/31/31
f 14/34/34 13/35/35 12/33/33
f 12/33/33 13/35/35 11/36/36
f 25/38/38 21/39/39 23/37/37
f 23/37/37 21/39/39 20/40/40
f 23/37/37 20/40/40 24/41/41
f 22/42/42 24/43/43 17/45/45
f 17/45/45 24/43/43 20/44/44
f 15/46/46 22/47/47 9/49/49
f 9/49/49 22/47/47 17/48/48
f 16/50/50 15/51/51 10/53/53
f 10/53/53 15/51/51 9/52/52
f 25/54/54 16/55/55 21/57/57
f 21/57/57 16/55/55 10/56/56
f 21/58/58 10/59/59 20/62/62
f 20/62/62 10/59/59 17/61/61
f 17/61/61 10/59/59 9/60/60
f 15/63/63 16/64/64 27/66/66
f 27/66/66 16/64/64 26/65/65
f 25/68/68 35/87/87 16/67/67
f 16/67/67 35/87/87 33/88/88
f 16/67/67 33/88/88 29/89/89
f 23/69/69 287/70/70 25/68/68
f 25/68/68 287/70/70 157/83/83
f 25/68/68 157/83/83 117/84/84
f 286/71/71 300/72/72 287/70/70
f 287/70/70 300/72/72 301/73/73
f 287/70/70 301/73/73 275/79/79
f 275/79/79 301/73/73 280/78/78
f 280/78/78 301/73/73 288/74/74
f 280/78/78 288/74/74 282/77/77
f 282/77/77 288/74/74 283/76/76
f 283/76/76 288/74/74 281/75/75
f 275/79/79 270/80/80 287/70/70
f 287/70/70 270/80/80 256/81/81
f 287/70/70 256/81/81 200/82/82
f 200/82/82 157/83/83 287/70/70
f 117/84/84 59/85/85 25/68/68
f 25/68/68 59/85/85 43/86/86
f 25/68/68 43/86/86 35/87/87
f 29/89/89 28/90/90 16/67/67
f 16/67/67 28/90/90 30/91/91
f 16/67/67 30/91/91 34/92/92
f 16/67/67 34/92/92 26/97/97
f 26/97/97 34/92/92 36/93/93
f 26/97/97 36/93/93 48/94/94
f 48/94/94 84/95/95 26/97/97
f 26/97/97 84/95/95 140/96/96
f 284/98/98 31/99/99 285/101/101
f 285/101/101 31/99/99 32/100/100
f 31/102/102 11/103/103 32/105/105
f 32/105/105 11/103/103 13/104/104
f 284/106/106 285/107/107 292/140/140
f 292/140/140 285/107/107 295/108/108
f 292/140/140 295/108/108 304/139/139
f 304/139/139 295/108/108 302/109/109
f 304/139/139 302/109/109 314/138/138
f 314/138/138 302/109/109 310/110/110
f 314/138/138 310/110/110 322/137/137
f 322/137/137 310/110/110 318/111/111
f 322/137/137 318/111/111 330/136/136
f 330/136/136 318/111/111 326/112/112
f 330/136/136 326/112/112 342/135/135
f 342/135/135 326/112/112 334/113/113
f 342/135/135 334/113/113 348/134/134
f 348/134/134 334/113/113 338/114/114
f 348/134/134 338/114/114 352/133/133
f 352/133/133 338/114/114 346/115/115
f 352/133/133 346/115/115 354/132/132
f 354/132/132 346/115/115 340/116/116
f 354/132/132 340/116/116 350/131/131
f 350/131/131 340/116/116 336/117/117
f 350/131/131 336/117/117 344/130/130
f 344/130/130 336/117/117 328/118/118
f 344/130/130 328/118/118 332/129/129
f 332/129/129 328/118/118 320/119/119
f 332/129/129 320/119/119 324/128/128
f 324/128/128 320/119/119 312/120/120
f 324/128/128 312/120/120 316/127/127
f 316/127/127 312/120/120 308/121/121
f 316/127/127 308/121/121 306/126/126
f 306/126/126 308/121/121 300/122/122
f 306/126/126 300/122/122 298/125/125
f 298/125/125 300/122/122 286/123/123
f 298/125/125 286/123/123 289/124/124
f 92/142/142 73/188/188 81/141/141
f 81/141/141 73/188/188 72/210/210
f 81/141/141 72/210/210 75/186/186
f 75/186/186 72/210/210 62/209/209
f 75/186/186 62/209/209 64/269/269
f 64/269/269 62/209/209 49/185/185
f 64/269/269 49/185/185 51/270/270
f 51/270/270 49/185/185 41/157/157
f 51/270/270 41/157/157 53/271/271
f 53/271/271 41/157/157 46/158/158
f 53/271/271 46/158/158 60/183/183
f 60/183/183 46/158/158 57/159/159
f 60/183/183 57/159/159 70/265/265
f 70/265/265 57/159/159 99/266/266
f 70/265/265 99/266/266 111/267/267
f 111/267/267 99/266/266 124/259/259
f 111/267/267 124/259/259 128/182/182
f 128/182/182 124/259/259 145/262/262
f 128/182/182 145/262/262 134/153/153
f 134/153/153 145/262/262 151/280/280
f 134/153/153 151/281/281 158/152/152
f 158/282/282 151/178/178 163/258/258
f 158/283/283 163/258/258 177/206/206
f 177/206/206 163/258/258 167/257/257
f 177/206/206 167/257/257 181/252/252
f 181/252/252 167/257/257 171/205/205
f 181/252/252 171/205/205 190/253/253
f 190/253/253 171/205/205 205/163/163
f 190/253/253 205/163/163 207/254/254
f 207/254/254 205/163/163 250/164/164
f 207/254/254 250/164/164 236/203/203
f 236/203/203 250/164/164 262/165/165
f 236/203/203 262/165/165 247/248/248
f 247/248/248 262/165/165 254/249/249
f 247/248/248 254/249/249 240/250/250
f 240/250/250 254/249/249 243/242/242
f 240/250/250 243/242/242 231/202/202
f 231/202/202 243/242/242 234/245/245
f 231/202/202 234/245/245 224/149/149
f 224/149/149 234/245/245 235/201/201
f 224/149/149 235/201/201 225/148/148
f 225/148/148 235/201/201 232/241/241
f 225/148/148 232/241/241 223/199/199
f 223/199/199 232/241/241 244/240/240
f 223/199/199 244/240/240 241/234/234
f 241/234/234 244/240/240 258/239/239
f 241/234/234 258/239/239 255/235/235
f 255/235/235 258/239/239 267/168/168
f 255/235/235 267/168/168 263/169/169
f 114/143/143 88/211/211 92/142/142
f 92/142/142 88/211/211 76/215/215
f 92/142/142 76/215/215 73/188/188
f 73/188/188 76/215/215 65/214/214
f 73/188/188 65/214/214 63/207/207
f 63/207/207 65/214/214 52/187/187
f 63/207/207 52/187/187 50/208/208
f 50/208/208 52/187/187 40/156/156
f 50/208/208 40/156/156 49/185/185
f 49/185/185 40/156/156 41/157/157
f 135/144/144 121/192/192 114/143/143
f 114/143/143 121/192/192 108/219/219
f 114/143/143 108/219/219 98/190/190
f 98/190/190 108/219/219 96/218/218
f 98/190/190 96/218/218 80/278/278
f 80/278/278 96/218/218 71/189/189
f 80/278/278 71/189/189 61/279/279
f 61/279/279 71/189/189 47/176/176
f 61/279/279 47/176/176 54/213/213
f 54/213/213 47/176/176 42/177/177
f 54/213/213 42/177/177 52/187/187
f 52/187/187 42/177/177 40/156/156
f 159/145/145 146/193/193 135/144/144
f 135/144/144 146/193/193 129/223/223
f 135/144/144 129/223/223 121/192/192
f 121/192/192 129/223/223 125/222/222
f 121/192/192 125/222/222 112/216/216
f 112/216/216 125/222/222 119/221/221
f 112/216/216 119/221/221 100/217/217
f 100/217/217 119/221/221 102/174/174
f 100/217/217 102/174/174 58/175/175
f 184/146/146 164/195/195 159/145/145
f 159/145/145 164/195/195 152/228/228
f 159/145/145 152/228/228 146/193/193
f 146/193/193 152/228/228 154/227/227
f 146/193/193 154/227/227 142/220/220
f 142/220/220 154/227/227 156/226/226
f 142/220/220 156/226/226 137/191/191
f 137/191/191 156/226/226 139/173/173
f 137/191/191 139/173/173 102/174/174
f 202/147/147 188/229/229 184/146/146
f 184/146/146 188/229/229 178/233/233
f 184/146/146 178/233/233 164/195/195
f 164/195/195 178/233/233 182/232/232
f 164/195/195 182/232/232 168/224/224
f 168/224/224 182/232/232 191/194/194
f 168/224/224 191/194/194 172/225/225
f 172/225/225 191/194/194 170/172/172
f 172/225/225 170/172/172 156/226/226
f 156/226/226 170/172/172 139/173/173
f 225/148/148 223/199/199 202/147/147
f 202/147/147 223/199/199 210/237/237
f 202/147/147 210/237/237 199/197/197
f 199/197/197 210/237/237 228/236/236
f 199/197/197 228/236/236 212/276/276
f 212/276/276 228/236/236 248/196/196
f 212/276/276 248/196/196 237/277/277
f 237/277/277 248/196/196 251/170/170
f 237/277/277 251/170/170 208/231/231
f 208/231/231 251/170/170 206/171/171
f 208/231/231 206/171/171 191/194/194
f 191/194/194 206/171/171 170/172/172
f 224/149/149 201/150/150 231/202/202
f 231/202/202 201/150/150 222/251/251
f 231/202/202 222/251/251 240/250/250
f 240/250/250 222/251/251 227/247/247
f 240/250/250 227/247/247 247/248/248
f 247/248/248 227/247/247 236/203/203
f 222/251/251 201/150/150 209/246/246
f 209/246/246 201/150/150 183/151/151
f 209/246/246 183/151/151 198/204/204
f 198/204/204 183/151/151 187/256/256
f 198/204/204 187/256/256 196/255/255
f 196/255/255 187/256/256 181/252/252
f 196/255/255 181/252/252 190/253/253
f 187/256/256 183/151/151 177/206/206
f 177/206/206 183/151/151 158/284/284
f 134/153/153 113/154/154 128/182/182
f 128/182/182 113/154/154 120/268/268
f 128/182/182 120/268/268 111/267/267
f 111/267/267 120/268/268 95/264/264
f 111/267/267 95/264/264 70/265/265
f 70/265/265 95/264/264 60/183/183
f 120/268/268 113/154/154 107/263/263
f 107/263/263 113/154/154 91/155/155
f 107/263/263 91/155/155 97/184/184
f 97/184/184 91/155/155 87/273/273
f 97/184/184 87/273/273 68/272/272
f 68/272/272 87/273/273 64/269/269
f 68/272/272 64/269/269 51/270/270
f 87/273/273 91/155/155 75/186/186
f 75/186/186 91/155/155 81/141/141
f 57/159/159 101/160/160 99/266/266
f 99/266/266 101/160/160 118/181/181
f 99/266/266 118/181/181 124/259/259
f 124/259/259 118/181/181 141/261/261
f 124/259/259 141/261/261 145/262/262
f 145/262/262 141/261/261 151/285/285
f 101/160/160 138/286/286 118/181/181
f 118/181/181 138/287/287 136/260/260
f 118/181/181 136/260/260 141/261/261
f 141/261/261 136/260/260 153/288/288
f 141/289/289 153/179/179 151/178/178
f 151/178/178 153/179/179 163/258/258
f 136/260/260 138/290/290 155/180/180
f 155/291/291 138/161/161 169/162/162
f 155/292/292 169/162/162 171/205/205
f 171/205/205 169/162/162 205/163/163
f 262/165/165 266/166/166 254/249/249
f 254/249/249 266/166/166 257/200/200
f 254/249/249 257/200/200 243/242/242
f 243/242/242 257/200/200 245/244/244
f 243/242/242 245/244/244 234/245/245
f 234/245/245 245/244/244 235/201/201
f 266/166/166 269/167/167 257/200/200
f 257/200/200 269/167/167 259/243/243
f 257/200/200 259/243/243 245/244/244
f 245/244/244 259/243/243 246/238/238
f 245/244/244 246/238/238 235/201/201
f 235/201/201 246/238/238 232/241/241
f 259/243/243 269/167/167 260/198/198
f 260/198/198 269/167/167 267/168/168
f 260/198/198 267/168/168 258/239/239
f 255/235/235 263/169/169 248/196/196
f 248/196/196 263/169/169 251/170/170
f 100/217/217 58/175/175 71/189/189
f 71/189/189 58/175/175 47/176/176
f 167/257/257 163/258/258 153/179/179
f 171/205/205 167/257/257 155/293/293
f 155/294/294 167/257/257 153/179/179
f 155/180/180 153/295/295 136/260/260
f 88/211/211 114/143/143 98/190/190
f 102/174/174 119/221/221 137/191/191
f 137/191/191 119/221/221 125/222/222
f 137/191/191 125/222/222 142/220/220
f 142/220/220 125/222/222 129/223/223
f 142/220/220 129/223/223 146/193/193
f 188/229/229 202/147/147 199/197/197
f 62/209/209 72/210/210 63/207/207
f 63/207/207 72/210/210 73/188/188
f 49/185/185 62/209/209 50/208/208
f 50/208/208 62/209/209 63/207/207
f 65/214/214 76/215/215 69/212/212
f 69/212/212 76/215/215 88/211/211
f 69/212/212 88/211/211 80/278/278
f 80/278/278 88/211/211 98/190/190
f 52/187/187 65/214/214 54/213/213
f 54/213/213 65/214/214 69/212/212
f 54/213/213 69/212/212 61/279/279
f 61/279/279 69/212/212 80/278/278
f 96/218/218 108/219/219 112/216/216
f 112/216/216 108/219/219 121/192/192
f 71/189/189 96/218/218 100/217/217
f 100/217/217 96/218/218 112/216/216
f 154/227/227 152/228/228 168/224/224
f 168/224/224 152/228/228 164/195/195
f 156/226/226 154/227/227 172/225/225
f 172/225/225 154/227/227 168/224/224
f 182/232/232 178/233/233 197/230/230
f 197/230/230 178/233/233 188/229/229
f 197/230/230 188/229/229 212/276/276
f 212/276/276 188/229/229 199/197/197
f 191/194/194 182/232/232 208/231/231
f 208/231/231 182/232/232 197/230/230
f 208/231/231 197/230/230 237/277/277
f 237/277/277 197/230/230 212/276/276
f 228/236/236 210/237/237 241/234/234
f 241/234/234 210/237/237 223/199/199
f 248/196/196 228/236/236 255/235/235
f 255/235/235 228/236/236 241/234/234
f 244/240/240 232/241/241 246/238/238
f 258/239/239 244/240/240 260/198/198
f 260/198/198 244/240/240 246/238/238
f 260/198/198 246/238/238 259/243/243
f 222/251/251 209/246/246 227/247/247
f 227/247/247 209/246/246 211/275/275
f 227/247/247 211/275/275 236/203/203
f 236/203/203 211/275/275 207/254/254
f 177/206/206 181/252/252 187/256/256
f 190/253/253 207/254/254 196/255/255
f 196/255/255 207/254/254 211/275/275
f 196/255/255 211/275/275 198/204/204
f 198/204/204 211/275/275 209/246/246
f 120/268/268 107/263/263 95/264/264
f 95/264/264 107/263/263 79/274/274
f 95/264/264 79/274/274 60/183/183
f 60/183/183 79/274/274 53/271/271
f 75/186/186 64/269/269 87/273/273
f 51/270/270 53/271/271 68/272/272
f 68/272/272 53/271/271 79/274/274
f 68/272/272 79/274/274 97/184/184
f 97/184/184 79/274/274 107/263/263
f 217/297/297 224/318/318 226/296/296
f 226/296/296 224/318/318 225/319/319
f 226/296/296 225/319/319 218/310/310
f 218/310/310 225/319/319 202/320/320
f 218/310/310 202/320/320 195/309/309
f 195/309/309 202/320/320 184/321/321
f 195/309/309 184/321/321 174/308/308
f 174/308/308 184/321/321 159/322/322
f 174/308/308 159/322/322 148/307/307
f 148/307/307 159/322/322 135/323/323
f 148/307/307 135/323/323 123/306/306
f 123/306/306 135/323/323 114/324/324
f 123/306/306 114/324/324 106/305/305
f 106/305/305 114/324/324 92/325/325
f 106/305/305 92/325/325 86/304/304
f 86/304/304 92/325/325 81/326/326
f 86/304/304 81/327/327 85/303/303
f 85/328/328 81/311/311 91/312/312
f 85/329/329 91/312/312 105/302/302
f 105/302/302 91/312/312 113/313/313
f 105/302/302 113/313/313 122/301/301
f 122/301/301 113/313/313 134/314/314
f 122/301/301 134/314/314 147/300/300
f 147/300/300 134/314/314 158/315/315
f 147/300/300 158/315/315 173/299/299
f 173/299/299 158/315/315 183/316/316
f 173/299/299 183/316/316 194/298/298
f 194/298/298 183/316/316 201/317/317
f 194/298/298 201/317/317 217/297/297
f 217/297/297 201/317/317 224/318/318
f 283/358/358 281/330/330 267/369/369
f 267/369/369 281/330/330 274/331/331
f 267/369/369 274/331/331 263/368/368
f 263/368/368 274/331/331 268/332/332
f 263/368/368 268/332/332 251/367/367
f 251/367/367 268/332/332 261/333/333
f 251/367/367 261/333/333 249/334/334
f 251/367/367 249/334/334 206/366/366
f 206/366/366 249/334/334 219/335/335
f 206/366/366 219/335/335 189/336/336
f 206/366/366 189/336/336 170/365/365
f 170/365/365 189/336/336 162/337/337
f 170/365/365 162/337/337 139/364/364
f 139/364/364 162/337/337 140/338/338
f 139/364/364 140/338/338 84/339/339
f 139/364/364 84/339/339 102/363/363
f 102/363/363 84/339/339 48/340/340
f 102/363/363 48/340/340 58/362/362
f 58/362/362 48/340/340 36/341/341
f 58/362/362 36/341/341 47/361/361
f 47/361/361 36/341/341 34/342/342
f 47/361/361 34/342/342 42/360/360
f 42/360/360 34/342/342 30/343/343
f 42/360/360 30/343/343 28/381/381
f 42/360/360 28/382/382 40/359/359
f 40/383/383 28/344/344 29/345/345
f 40/384/384 29/345/345 41/380/380
f 41/380/380 29/345/345 33/346/346
f 41/380/380 33/346/346 46/379/379
f 46/379/379 33/346/346 35/347/347
f 46/379/379 35/347/347 57/378/378
f 57/378/378 35/347/347 43/348/348
f 57/378/378 43/348/348 101/377/377
f 101/377/377 43/348/348 59/349/349
f 101/377/377 59/349/349 117/350/350
f 101/377/377 117/350/350 138/376/376
f 138/376/376 117/350/350 157/351/351
f 138/376/376 157/351/351 169/375/375
f 169/375/375 157/351/351 200/352/352
f 169/375/375 200/352/352 205/374/374
f 205/374/374 200/352/352 256/353/353
f 205/374/374 256/353/353 250/373/373
f 250/373/373 256/353/353 270/354/354
f 250/373/373 270/354/354 275/355/355
f 250/373/373 275/355/355 262/372/372
f 262/372/372 275/355/355 280/356/356
f 262/372/372 280/356/356 266/371/371
f 266/371/371 280/356/356 282/357/357
f 266/371/371 282/357/357 269/370/370
f 269/370/370 282/357/357 283/358/358
f 269/370/370 283/358/358 267/369/369
f 218/386/386 230/435/435 226/385/385
f 226/385/385 230/435/435 233/434/434
f 226/385/385 233/434/434 229/444/444
f 229/444/444 233/434/434 242/400/400
f 229/444/444 242/400/400 238/401/401
f 195/387/387 204/431/431 218/386/386
f 218/386/386 204/431/431 221/430/430
f 218/386/386 221/430/430 230/435/435
f 230/435/435 221/430/430 239/416/416
f 230/435/435 239/416/416 242/400/400
f 174/445/445 180/433/433 195/387/387
f 195/387/387 180/433/433 193/436/436
f 195/387/387 193/436/436 204/431/431
f 204/431/431 193/436/436 214/415/415
f 204/431/431 214/415/415 221/430/430
f 221/430/430 214/415/415 239/416/416
f 148/389/389 150/446/446 174/388/388
f 174/447/447 150/437/437 166/432/432
f 174/448/448 166/432/432 180/433/433
f 180/433/433 166/432/432 186/414/414
f 180/433/433 186/414/414 193/436/436
f 193/436/436 186/414/414 214/415/415
f 150/449/449 148/389/389 144/417/417
f 144/417/417 148/389/389 123/390/390
f 144/417/417 123/390/390 127/438/438
f 127/438/438 123/390/390 116/419/419
f 127/438/438 116/419/419 110/411/411
f 110/411/411 116/419/419 104/418/418
f 110/411/411 104/418/418 83/410/410
f 83/410/410 104/418/418 90/420/420
f 83/410/410 90/420/420 67/409/409
f 67/409/409 90/420/420 78/440/440
f 67/409/409 78/440/440 74/439/439
f 74/439/439 78/440/440 86/392/392
f 74/439/439 86/392/392 85/393/393
f 123/390/390 106/391/391 116/419/419
f 116/419/419 106/391/391 104/418/418
f 104/418/418 106/391/391 90/420/420
f 90/420/420 106/391/391 86/392/392
f 90/420/420 86/392/392 78/440/440
f 105/394/394 89/421/421 85/393/393
f 85/393/393 89/421/421 77/441/441
f 85/393/393 77/441/441 74/439/439
f 74/439/439 77/441/441 66/408/408
f 74/439/439 66/408/408 67/409/409
f 122/395/395 115/423/423 105/394/394
f 105/394/394 115/423/423 103/422/422
f 105/394/394 103/422/422 89/421/421
f 89/421/421 103/422/422 82/407/407
f 89/421/421 82/407/407 66/408/408
f 147/396/396 143/425/425 122/395/395
f 122/395/395 143/425/425 126/442/442
f 122/395/395 126/442/442 115/423/423
f 115/423/423 126/442/442 109/406/406
f 115/423/423 109/406/406 103/422/422
f 103/422/422 109/406/406 82/407/407
f 143/425/425 147/396/396 149/424/424
f 149/424/424 147/396/396 173/397/397
f 149/424/424 173/397/397 165/426/426
f 165/426/426 173/397/397 179/427/427
f 165/426/426 179/427/427 185/403/403
f 185/403/403 179/427/427 192/443/443
f 185/403/403 192/443/443 213/402/402
f 213/402/402 192/443/443 203/429/429
f 213/402/402 203/429/429 220/428/428
f 220/428/428 203/429/429 217/399/399
f 220/428/428 217/399/399 229/444/444
f 229/444/444 217/399/399 226/385/385
f 173/397/397 194/398/398 179/427/427
f 179/427/427 194/398/398 192/443/443
f 192/443/443 194/398/398 203/429/429
f 203/429/429 194/398/398 217/399/399
f 229/444/444 238/401/401 220/428/428
f 220/428/428 238/401/401 213/402/402
f 185/403/403 160/404/404 165/426/426
f 165/426/426 160/404/404 149/424/424
f 160/404/404 130/405/405 149/424/424
f 149/424/424 130/405/405 143/425/425
f 143/425/425 130/405/405 126/442/442
f 126/442/442 130/405/405 109/406/406
f 110/411/411 131/450/450 127/438/438
f 127/438/438 131/451/451 144/417/417
f 144/452/452 131/412/412 150/437/437
f 150/437/437 131/412/412 161/413/413
f 150/437/437 161/413/413 166/432/432
f 166/432/432 161/413/413 186/414/414
f 89/421/421 66/408/408 77/441/441
f 242/400/400 233/434/434 230/435/435
f 272/474/474 273/492/492 242/475/475
f 242/493/493 273/453/453 271/454/454
f 242/494/494 271/454/454 238/491/491
f 238/491/491 271/454/454 264/455/455
f 238/491/491 264/455/455 213/490/490
f 213/490/490 264/455/455 252/456/456
f 213/490/490 252/456/456 185/489/489
f 185/489/489 252/456/456 215/457/457
f 185/489/489 215/457/457 175/458/458
f 185/489/489 175/458/458 160/488/488
f 160/488/488 175/458/458 132/459/459
f 160/488/488 132/459/459 130/487/487
f 130/487/487 132/459/459 93/460/460
f 130/487/487 93/460/460 109/486/486
f 109/486/486 93/460/460 55/461/461
f 109/486/486 55/461/461 82/485/485
f 82/485/485 55/461/461 44/462/462
f 82/485/485 44/462/462 38/463/463
f 82/485/485 38/463/463 66/484/484
f 66/484/484 38/463/463 37/464/464
f 66/484/484 37/464/464 67/483/483
f 67/483/483 37/464/464 39/465/465
f 67/483/483 39/465/465 83/482/482
f 83/482/482 39/465/465 45/466/466
f 83/482/482 45/466/466 56/467/467
f 83/482/482 56/467/467 110/481/481
f 110/481/481 56/467/467 94/468/468
f 110/481/481 94/468/468 131/480/480
f 131/480/480 94/468/468 133/469/469
f 131/480/480 133/469/469 161/479/479
f 161/479/479 133/469/469 176/470/470
f 161/479/479 176/470/470 186/478/478
f 186/478/478 176/470/470 216/471/471
f 186/478/478 216/471/471 253/472/472
f 186/478/478 253/472/472 214/477/477
f 214/477/477 253/472/472 265/473/473
f 214/477/477 265/473/473 239/476/476
f 239/476/476 265/473/473 272/474/474
f 239/476/476 272/474/474 242/475/475
f 296/496/496 272/510/510 297/495/495
f 297/495/495 272/510/510 265/511/511
f 297/495/495 265/511/511 253/512/512
f 295/497/497 285/498/498 296/496/496
f 296/496/496 285/498/498 271/530/530
f 296/496/496 271/530/530 273/509/509
f 32/499/499 132/525/525 285/498/498
f 285/498/498 132/525/525 175/526/526
f 285/498/498 175/526/526 215/527/527
f 132/525/525 32/499/499 93/524/524
f 93/524/524 32/499/499 13/500/500
f 93/524/524 13/500/500 55/523/523
f 55/523/523 13/500/500 44/522/522
f 44/522/522 13/500/500 38/521/521
f 38/521/521 13/500/500 14/501/501
f 38/521/521 14/501/501 37/520/520
f 37/520/520 14/501/501 39/519/519
f 39/519/519 14/501/501 45/518/518
f 45/518/518 14/501/501 56/517/517
f 56/517/517 14/501/501 19/506/506
f 56/517/517 19/506/506 94/516/516
f 94/516/516 19/506/506 278/508/508
f 94/516/516 278/508/508 133/515/515
f 133/515/515 278/508/508 176/514/514
f 176/514/514 278/508/508 216/513/513
f 216/513/513 278/508/508 253/512/512
f 253/512/512 278/508/508 297/495/495
f 14/501/501 6/502/502 19/506/506
f 19/506/506 6/502/502 3/503/503
f 19/506/506 3/503/503 8/505/505
f 8/505/505 3/503/503 4/504/504
f 19/506/506 279/507/507 278/508/508
f 273/509/509 272/510/510 296/496/496
f 215/527/527 252/528/528 285/498/498
f 285/498/498 252/528/528 264/529/529
f 285/498/498 264/529/529 271/530/530
f 22/532/532 290/533/533 24/531/531
f 24/531/531 290/533/533 287/534/534
f 24/531/531 287/534/534 23/535/535
f 26/536/536 140/537/537 27/548/548
f 27/548/548 140/537/537 291/547/547
f 291/547/547 140/537/537 281/545/545
f 291/547/547 281/545/545 288/546/546
f 281/545/545 140/537/537 274/544/544
f 274/544/544 140/537/537 162/538/538
f 274/544/544 162/538/538 268/543/543
f 268/543/543 162/538/538 189/539/539
f 268/543/543 189/539/539 261/542/542
f 261/542/542 189/539/539 219/540/540
f 261/542/542 219/540/540 249/541/541
f 287/549/549 290/550/550 286/552/552
f 286/552/552 290/550/550 289/551/551
f 293/584/584 292/553/553 305/583/583
f 305/583/583 292/553/553 304/554/554
f 305/583/583 304/554/554 315/582/582
f 315/582/582 304/554/554 314/555/555
f 315/582/582 314/555/555 323/581/581
f 323/581/581 314/555/555 322/556/556
f 323/581/581 322/556/556 331/580/580
f 331/580/580 322/556/556 330/557/557
f 331/580/580 330/557/557 343/579/579
f 343/579/579 330/557/557 342/558/558
f 343/579/579 342/558/558 349/578/578
f 349/578/578 342/558/558 348/559/559
f 349/578/578 348/559/559 353/577/577
f 353/577/577 348/559/559 352/560/560
f 353/577/577 352/560/560 355/576/576
f 355/576/576 352/560/560 354/561/561
f 355/576/576 354/561/561 351/575/575
f 351/575/575 354/561/561 350/562/562
f 351/575/575 350/562/562 345/574/574
f 345/574/574 350/562/562 344/563/563
f 345/574/574 344/563/563 333/573/573
f 333/573/573 344/563/563 332/564/564
f 333/573/573 332/564/564 325/572/572
f 325/572/572 332/564/564 324/565/565
f 325/572/572 324/565/565 317/571/571
f 317/571/571 324/565/565 316/566/566
f 317/571/571 316/566/566 307/570/570
f 307/570/570 316/566/566 306/567/567
f 307/570/570 306/567/567 299/569/569
f 299/569/569 306/567/567 298/568/568
f 289/586/586 290/587/587 298/585/585
f 298/585/585 290/587/587 299/592/592
f 299/592/592 290/587/587 291/591/591
f 291/591/591 290/587/587 22/588/588
f 291/591/591 22/588/588 15/589/589
f 15/589/589 27/590/590 291/591/591
f 301/622/622 300/593/593 309/621/621
f 309/621/621 300/593/593 308/594/594
f 309/621/621 308/594/594 313/620/620
f 313/620/620 308/594/594 312/595/595
f 313/620/620 312/595/595 321/619/619
f 321/619/619 312/595/595 320/596/596
f 321/619/619 320/596/596 329/618/618
f 329/618/618 320/596/596 328/597/597
f 329/618/618 328/597/597 337/617/617
f 337/617/617 328/597/597 336/598/598
f 337/617/617 336/598/598 341/616/616
f 341/616/616 336/598/598 340/599/599
f 341/616/616 340/599/599 347/615/615
f 347/615/615 340/599/599 346/600/600
f 347/615/615 346/600/600 339/614/614
f 339/614/614 346/600/600 338/601/601
f 339/614/614 338/601/601 335/613/613
f 335/613/613 338/601/601 334/602/602
f 335/613/613 334/602/602 327/612/612
f 327/612/612 334/602/602 326/603/603
f 327/612/612 326/603/603 319/611/611
f 319/611/611 326/603/603 318/604/604
f 319/611/611 318/604/604 311/610/610
f 311/610/610 318/604/604 310/605/605
f 311/610/610 310/605/605 303/609/609
f 303/609/609 310/605/605 302/606/606
f 303/609/609 302/606/606 296/608/608
f 296/608/608 302/606/606 295/607/607
f 291/624/624 288/625/625 299/623/623
f 299/623/623 288/625/625 301/626/626
f 299/623/623 301/626/626 307/655/655
f 307/655/655 301/626/626 309/627/627
f 307/655/655 309/627/627 317/654/654
f 317/654/654 309/627/627 313/628/628
f 317/654/654 313/628/628 325/653/653
f 325/653/653 313/628/628 321/629/629
f 325/653/653 321/629/629 333/652/652
f 333/652/652 321/629/629 329/630/630
f 333/652/652 329/630/630 345/651/651
f 345/651/651 329/630/630 337/631/631
f 345/651/651 337/631/631 351/650/650
f 351/650/650 337/631/631 341/632/632
f 351/650/650 341/632/632 355/649/649
f 355/649/649 341/632/632 347/633/633
f 355/649/649 347/633/633 353/648/648
f 353/648/648 347/633/633 339/634/634
f 353/648/648 339/634/634 349/647/647
f 349/647/647 339/634/634 335/635/635
f 349/647/647 335/635/635 343/646/646
f 343/646/646 335/635/635 327/636/636
f 343/646/646 327/636/636 331/645/645
f 331/645/645 327/636/636 319/637/637
f 331/645/645 319/637/637 323/644/644
f 323/644/644 319/637/637 311/638/638
f 323/644/644 311/638/638 315/643/643
f 315/643/643 311/638/638 303/639/639
f 315/643/643 303/639/639 305/642/642
f 305/642/642 303/639/639 296/640/640
f 305/642/642 296/640/640 293/641/641
f 296/657/657 297/658/658 293/656/656
f 293/656/656 297/658/658 294/659/659
f 292/660/660 293/661/661 284/673/673
f 284/673/673 293/661/661 276/663/663
f 284/673/673 276/663/663 12/670/670
f 12/670/670 276/663/663 18/665/665
f 12/670/670 18/665/665 5/669/669
f 5/669/669 18/665/665 1/668/668
f 1/668/668 18/665/665 7/666/666
f 1/668/668 7/666/666 2/667/667
f 293/661/661 294/662/662 276/663/663
f 276/663/663 277/664/664 18/665/665
f 12/670/670 11/671/671 284/673/673
f 284/673/673 11/671/671 31/672/672
# 355 vertices
# 673 texture params
# 673 normals
# 710 facets

# 1 groups
