# Blender 5.1.1
# www.blender.org
mtllib painted_wooden_table_4k.mtl
o painted_wooden_table
v -0.847798 0.260093 -0.129478
v -0.798479 0.260093 -0.129478
v -0.847798 0.917067 -0.129478
v -0.847798 0.235682 -0.160186
v -0.847798 0.260093 0.128854
v -0.798479 0.260093 0.128854
v -0.847798 0.917067 0.128854
v -0.847798 0.235682 0.159563
v -0.798479 0.235682 0.159563
v -0.847798 0.222758 0.170729
v -0.798479 0.222758 0.170729
v -0.847798 0.208399 0.178307
v -0.847798 0.222758 -0.171353
v -0.798479 0.222758 -0.171353
v -0.847798 0.208399 -0.178931
v -0.798479 0.208399 -0.178931
v -0.847798 0.191886 -0.183318
v -0.798479 0.191886 -0.183318
v -0.847798 0.159578 -0.186907
v -0.847798 0.191886 0.182694
v -0.798479 0.191886 0.182694
v -0.847798 0.159578 0.186283
v -0.798479 0.159578 0.186283
v -0.847798 0.137680 0.224370
v -0.798479 0.137680 0.224370
v -0.847798 0.124218 0.243513
v -0.847798 0.137680 -0.224994
v -0.798479 0.137680 -0.224994
v -0.847798 0.124218 -0.244137
v -0.798479 0.124218 -0.244137
v -0.847798 0.108782 -0.257497
v -0.798479 0.108782 -0.257497
v -0.847798 0.093345 -0.264277
v -0.847798 0.108782 0.256874
v -0.798479 0.108782 0.256874
v -0.847798 0.093345 0.263653
v -0.798479 0.093345 0.263653
v -0.847798 0.078627 0.267043
v -0.798479 0.078627 0.267043
v -0.847798 0.078627 -0.267667
v -0.798479 0.078627 -0.267667
v -0.798479 0.093345 -0.264277
v -0.798479 0.124218 0.243513
v -0.798479 0.159578 -0.186907
v -0.798479 0.208399 0.178307
v -0.798479 0.235682 -0.160186
v -0.798479 0.917067 0.128854
v -0.798479 0.917067 -0.129478
v 0.847798 0.260093 -0.129478
v 0.798480 0.260093 -0.129478
v 0.847798 0.917067 -0.129478
v 0.847798 0.235682 -0.160186
v 0.847798 0.260093 0.128854
v 0.798480 0.260093 0.128854
v 0.847798 0.917067 0.128854
v 0.847798 0.235682 0.159562
v 0.798480 0.235682 0.159562
v 0.847798 0.222758 0.170729
v 0.798480 0.222758 0.170729
v 0.847798 0.208399 0.178307
v 0.847798 0.222758 -0.171353
v 0.798480 0.222758 -0.171353
v 0.847798 0.208399 -0.178931
v 0.798480 0.208399 -0.178931
v 0.847798 0.191886 -0.183318
v 0.798480 0.191886 -0.183318
v 0.847798 0.159578 -0.186907
v 0.847798 0.191886 0.182694
v 0.798480 0.191886 0.182694
v 0.847798 0.159578 0.186283
v 0.798480 0.159578 0.186283
v 0.847798 0.137680 0.224370
v 0.798480 0.137680 0.224370
v 0.847798 0.124218 0.243513
v 0.847798 0.137680 -0.224994
v 0.798480 0.137680 -0.224994
v 0.847798 0.124218 -0.244137
v 0.798480 0.124218 -0.244137
v 0.847798 0.108782 -0.257498
v 0.798480 0.108782 -0.257498
v 0.847798 0.093345 -0.264277
v 0.847798 0.108782 0.256874
v 0.798480 0.108782 0.256874
v 0.847798 0.093345 0.263653
v 0.798480 0.093345 0.263653
v 0.847798 0.078627 0.267043
v 0.798480 0.078627 0.267043
v 0.847798 0.078627 -0.267667
v 0.798480 0.078627 -0.267667
v 0.798480 0.093345 -0.264277
v 0.798480 0.124218 0.243513
v 0.798480 0.159578 -0.186907
v 0.798480 0.208399 0.178307
v 0.798480 0.235682 -0.160186
v 0.798480 0.917067 0.128854
v 0.798480 0.917067 -0.129478
v 1.162770 0.958144 -0.570078
v 1.180322 0.958144 -0.568122
v 1.194297 0.958144 -0.561274
v 1.200245 0.958144 -0.549419
v 1.200782 0.950022 -0.562971
v 1.201452 0.932438 -0.571188
v 1.197716 0.946548 -0.570553
v 1.186906 0.953434 -0.571012
v 1.197886 0.954099 -0.563915
v 1.194260 0.954183 -0.567579
v 1.201235 0.918603 -0.569408
v 1.196800 0.914431 -0.570306
v 1.201846 0.914667 -0.563858
v 1.202281 0.913412 -0.556289
v 1.188889 0.913412 -0.570974
v 1.192424 0.955286 0.562950
v 1.193170 0.958144 0.559329
v 1.198037 0.958144 0.553518
v 1.201689 0.958144 0.533856
v 1.201314 0.953990 0.554078
v 1.201758 0.948684 0.560690
v 1.200938 0.940270 0.564741
v 1.198655 0.946139 0.565601
v 1.189871 0.952239 0.565796
v 1.178686 0.958144 0.565326
v 1.200469 0.918013 0.563515
v 1.196976 0.915272 0.564411
v 1.200931 0.915607 0.559742
v 1.200543 0.913412 0.553058
v 1.190227 0.913412 0.565461
v 1.198092 0.952536 0.562396
v 1.201197 0.913412 0.536366
v -1.163811 0.958144 -0.570078
v -1.181364 0.958144 -0.568122
v -1.195339 0.958144 -0.561274
v -1.201153 0.958144 -0.547196
v -1.201823 0.950022 -0.562971
v -1.201918 0.932438 -0.570248
v -1.198758 0.946548 -0.570553
v -1.187948 0.953434 -0.571012
v -1.198927 0.954099 -0.563915
v -1.195302 0.954183 -0.567579
v -1.201702 0.918603 -0.568468
v -1.196599 0.914230 -0.569239
v -1.202583 0.914735 -0.563490
v -1.203323 0.913412 -0.553797
v -1.189931 0.913412 -0.570974
v -1.193465 0.955286 0.562950
v -1.194212 0.958144 0.559329
v -1.199079 0.958144 0.553518
v -1.202731 0.958144 0.533856
v -1.203033 0.953990 0.554078
v -1.202799 0.948684 0.560690
v -1.201980 0.940270 0.564741
v -1.199697 0.946139 0.565601
v -1.190913 0.952239 0.565796
v -1.179727 0.958144 0.565326
v -1.201510 0.919831 0.563515
v -1.196460 0.915272 0.564411
v -1.201973 0.915607 0.558170
v -1.202263 0.913412 0.548300
v -1.191268 0.913412 0.565461
v -1.199134 0.952536 0.562396
v 0.887403 0.822524 0.401048
v 0.848836 0.822524 0.401048
v 0.887403 0.916604 0.401048
v 0.887403 0.822524 -0.408321
v 0.848836 0.822524 -0.408321
v 0.887403 0.916604 -0.408321
v 0.848836 0.916604 -0.408321
v 0.848836 0.916604 0.401048
v -0.887403 0.822524 0.401048
v -0.848835 0.822524 0.401048
v -0.887403 0.916604 0.401048
v -0.887403 0.822524 -0.408321
v -0.848835 0.822524 -0.408321
v -0.887403 0.916604 -0.408321
v -0.848835 0.916604 -0.408321
v -0.848835 0.916604 0.401048
v 0.860345 0.000492 0.397737
v 0.860345 0.004357 0.403276
v 0.860345 -0.000493 0.197058
v 0.782941 0.000492 0.397737
v 0.782941 0.004357 0.403276
v 0.782941 -0.000493 0.197058
v 0.782941 0.017569 0.404799
v 0.782941 0.031405 0.402445
v 0.860345 0.017569 0.404799
v 0.860345 0.031405 0.402445
v 0.860345 0.018892 0.174565
v 0.860345 0.028800 0.161883
v 0.860345 0.002738 0.188205
v 0.782941 0.018892 0.174565
v 0.782941 0.028800 0.161883
v 0.782941 0.002738 0.188205
v 0.782941 0.058827 0.377658
v 0.782941 0.043994 0.395244
v 0.782941 0.069921 0.354255
v 0.860345 0.058827 0.377658
v 0.860345 0.043994 0.395244
v 0.860345 0.069921 0.354255
v 0.860345 0.032462 0.130057
v 0.860345 0.031600 0.148004
v 0.782941 0.032462 0.130057
v 0.860345 0.032462 -0.130057
v 0.860345 0.076402 0.331406
v 0.860345 0.078771 0.309527
v 0.782941 0.078771 0.309527
v 0.860345 0.078771 -0.309527
v 0.860345 0.076402 -0.331406
v 0.782941 0.078771 -0.309527
v 0.782941 0.076402 -0.331406
v 0.782941 0.032462 -0.130057
v 0.782941 0.031600 -0.148004
v 0.782941 0.028800 -0.161883
v 0.860345 0.031600 -0.148004
v 0.860345 0.028800 -0.161883
v 0.860345 0.043994 -0.395244
v 0.860345 0.031405 -0.402445
v 0.860345 0.058827 -0.377658
v 0.782941 0.043994 -0.395244
v 0.782941 0.031405 -0.402445
v 0.782941 0.058827 -0.377658
v 0.782941 0.002738 -0.188205
v 0.782941 0.018892 -0.174565
v 0.782941 -0.000493 -0.197059
v 0.860345 0.002738 -0.188205
v 0.860345 0.018892 -0.174565
v 0.860345 -0.000493 -0.197059
v 0.860345 0.004357 -0.403276
v 0.860345 0.000492 -0.397737
v 0.860345 0.017569 -0.404799
v 0.782941 0.004357 -0.403276
v 0.782941 0.000492 -0.397737
v 0.782941 0.017569 -0.404799
v 0.782941 0.069921 -0.354255
v 0.860345 0.069921 -0.354255
v 0.782941 0.076402 0.331406
v 0.782941 0.031600 0.148004
v -0.860345 0.000492 0.397737
v -0.860345 0.004357 0.403276
v -0.860345 -0.000493 0.197059
v -0.782940 0.000492 0.397737
v -0.782940 0.004357 0.403276
v -0.782940 -0.000493 0.197059
v -0.782940 0.017569 0.404799
v -0.782940 0.031405 0.402445
v -0.860345 0.017569 0.404799
v -0.860345 0.031405 0.402445
v -0.860345 0.018892 0.174565
v -0.860345 0.028800 0.161883
v -0.860345 0.002738 0.188205
v -0.782940 0.018892 0.174565
v -0.782940 0.028800 0.161883
v -0.782940 0.002738 0.188205
v -0.782940 0.058827 0.377658
v -0.782940 0.043994 0.395244
v -0.782940 0.069921 0.354255
v -0.860345 0.058827 0.377658
v -0.860345 0.043994 0.395244
v -0.860345 0.069921 0.354255
v -0.860345 0.032462 0.130057
v -0.860345 0.031600 0.148004
v -0.782940 0.032462 0.130057
v -0.860345 0.032462 -0.130057
v -0.860345 0.076402 0.331406
v -0.860345 0.078771 0.309527
v -0.782940 0.078771 0.309527
v -0.860345 0.078771 -0.309527
v -0.860345 0.076402 -0.331406
v -0.782940 0.078771 -0.309527
v -0.782940 0.076402 -0.331406
v -0.782940 0.032462 -0.130057
v -0.782940 0.031600 -0.148004
v -0.782940 0.028800 -0.161883
v -0.860345 0.031600 -0.148004
v -0.860345 0.028800 -0.161883
v -0.860345 0.043994 -0.395244
v -0.860345 0.031405 -0.402445
v -0.860345 0.058827 -0.377658
v -0.782940 0.043994 -0.395244
v -0.782940 0.031405 -0.402445
v -0.782940 0.058827 -0.377658
v -0.782940 0.002738 -0.188205
v -0.782940 0.018892 -0.174565
v -0.782940 -0.000493 -0.197058
v -0.860345 0.002738 -0.188205
v -0.860345 0.018892 -0.174565
v -0.860345 -0.000493 -0.197058
v -0.860345 0.004357 -0.403276
v -0.860345 0.000492 -0.397737
v -0.860345 0.017569 -0.404799
v -0.782940 0.004357 -0.403276
v -0.782940 0.000492 -0.397737
v -0.782940 0.017569 -0.404799
v -0.782940 0.069921 -0.354255
v -0.860345 0.069921 -0.354255
v -0.782940 0.076402 0.331406
v -0.782940 0.031600 0.148004
v 0.916765 0.370927 0.016718
v 0.848234 0.371426 0.016718
v 0.916765 0.370927 -0.024020
v 0.947567 0.347743 0.016718
v 0.917022 0.277068 0.016718
v 0.917022 0.277068 -0.024020
v 0.947823 0.300876 0.016718
v 0.848231 0.276819 0.016718
v 0.848231 0.276819 -0.024020
v 0.848234 0.371426 -0.024020
v 0.947823 0.300876 -0.024020
v 0.947567 0.347743 -0.024020
v 0.795875 0.371426 -0.024020
v 0.795872 0.221169 -0.024020
v 0.795875 0.371426 0.016636
v -0.802303 0.371451 -0.024020
v -0.802307 0.221193 -0.024020
v -0.802303 0.371451 0.016637
v -0.802307 0.221193 0.016637
v 0.795872 0.221169 0.016636
v -0.916765 0.370927 0.016718
v -0.848234 0.371426 0.016718
v -0.916765 0.370927 -0.024020
v -0.947567 0.347743 0.016718
v -0.917021 0.277068 0.016718
v -0.917021 0.277068 -0.024020
v -0.947823 0.300876 0.016718
v -0.848231 0.276819 0.016718
v -0.848231 0.276819 -0.024020
v -0.848234 0.371426 -0.024020
v -0.947823 0.300876 -0.024020
v -0.947567 0.347743 -0.024020
v 0.797889 0.913325 -0.025450
v 0.797889 0.821831 -0.025451
v -0.802720 0.913325 -0.025450
v -0.802720 0.821831 -0.025450
v -0.802720 0.821831 0.018038
v -0.802720 0.913325 0.018038
v 0.797889 0.821831 0.018038
v 0.797889 0.913325 0.018038
vn -0.0000 0.0451 -0.9990
vn -0.0000 0.7464 -0.6655
vn -0.0000 -0.0000 -1.0000
vn -1.0000 -0.0000 -0.0000
vn -0.0000 0.0451 0.9990
vn -0.0000 0.7464 0.6655
vn -0.0000 -0.0000 1.0000
vn -0.0000 0.5663 0.8242
vn -0.0000 0.3614 0.9324
vn -0.0000 0.5663 -0.8242
vn -0.0000 0.3613 -0.9324
vn -0.0000 0.1613 -0.9869
vn -0.0000 0.6095 -0.7928
vn -0.0000 0.1613 0.9869
vn -0.0000 0.6095 0.7928
vn -0.0000 0.8507 0.5256
vn -0.0000 0.7473 0.6644
vn -0.0000 0.8507 -0.5256
vn -0.0000 0.7473 -0.6644
vn -0.0000 0.5464 -0.8375
vn -0.0000 0.3196 -0.9476
vn -0.0000 0.5464 0.8375
vn -0.0000 0.3196 0.9476
vn -0.0000 0.2244 0.9745
vn -0.0000 0.2244 -0.9745
vn 1.0000 -0.0000 -0.0000
vn 0.0002 0.0451 -0.9990
vn 0.0413 -0.0121 -0.9991
vn -0.0207 -0.0435 -0.9988
vn 0.0880 0.6073 -0.7896
vn 0.1873 0.7267 -0.6609
vn 0.2014 0.6025 -0.7723
vn 0.4511 0.6841 -0.5731
vn 0.4229 0.7922 -0.4400
vn 0.6829 0.6547 -0.3241
vn 0.6916 0.5995 -0.4029
vn 0.8042 0.3932 -0.4456
vn 0.6977 0.3887 -0.6018
vn 0.8539 0.2467 -0.4583
vn 0.2879 -0.9311 -0.2239
vn 0.6489 -0.5851 -0.4863
vn -0.0000 -1.0000 -0.0000
vn 0.0016 -1.0000 -0.0013
vn 0.7677 0.6247 0.1426
vn 0.6984 0.6561 0.2860
vn 0.7085 0.6368 0.3041
vn 0.3721 -0.8818 0.2897
vn 0.6152 -0.6284 0.4761
vn 0.0013 -1.0000 0.0010
vn 0.5849 0.5402 0.6051
vn 0.4759 0.7046 0.5264
vn 0.3015 0.5842 0.7535
vn 0.2585 0.6440 0.7200
vn 0.2962 0.4928 0.8182
vn 0.5221 0.3964 0.7551
vn 0.7505 0.3909 0.5329
vn 0.7352 0.2879 0.6137
vn 0.1176 -0.0305 0.9926
vn 0.2632 -0.0545 0.9632
vn 0.0001 0.0029 1.0000
vn 0.0204 -0.0170 0.9996
vn -0.0001 0.0030 1.0000
vn 0.9997 -0.0227 -0.0022
vn 0.9897 -0.0287 0.1402
vn 0.9999 -0.0157 0.0039
vn 0.9999 0.0168 0.0003
vn 0.9999 0.0168 0.0002
vn 0.0014 -0.0030 -1.0000
vn -0.0000 0.0198 -0.9998
vn 0.9994 0.0329 -0.0094
vn 0.9998 0.0170 -0.0125
vn 0.9994 0.0328 -0.0094
vn 0.9998 0.0175 -0.0002
vn -0.0002 0.0199 -0.9998
vn -0.0000 1.0000 -0.0000
vn -0.1013 -0.0310 -0.9944
vn -0.1012 -0.0310 -0.9944
vn -0.0482 -0.0693 -0.9964
vn -0.0880 0.6073 -0.7896
vn -0.2014 0.6025 -0.7723
vn -0.1873 0.7267 -0.6609
vn -0.4625 0.6875 -0.5599
vn -0.4448 0.7919 -0.4184
vn -0.7043 0.6054 -0.3707
vn -0.6994 0.6554 -0.2850
vn -0.8224 0.3794 -0.4239
vn -0.7138 0.3644 -0.5980
vn -0.8779 0.1871 -0.4407
vn -0.2812 -0.9305 -0.2348
vn -0.2811 -0.9305 -0.2347
vn -0.5866 -0.5859 -0.5591
vn -0.0018 -1.0000 -0.0013
vn -0.7091 0.6927 0.1317
vn -0.6723 0.6712 0.3122
vn -0.6545 0.7004 0.2848
vn -0.4201 -0.8544 0.3057
vn -0.6220 -0.5872 0.5179
vn -0.0018 -1.0000 0.0012
vn -0.5738 0.5440 0.6122
vn -0.4614 0.7123 0.5289
vn -0.3015 0.5842 0.7535
vn -0.2585 0.6440 0.7200
vn -0.2962 0.4928 0.8182
vn -0.5221 0.3964 0.7551
vn -0.7444 0.3780 0.5504
vn -0.7352 0.2879 0.6137
vn -0.1213 -0.0356 0.9920
vn -0.2219 -0.0619 0.9731
vn -0.0001 0.0029 1.0000
vn -0.0215 -0.0177 0.9996
vn 0.0001 0.0030 1.0000
vn -0.9981 -0.0271 0.0550
vn -0.9981 -0.0271 0.0551
vn -0.9921 -0.0325 0.1209
vn -0.9998 -0.0199 0.0009
vn -0.9998 0.0184 -0.0002
vn -0.9998 0.0187 -0.0004
vn -0.0237 -0.0093 -0.9997
vn -0.0002 0.0198 -0.9998
vn -0.9991 0.0309 -0.0274
vn -0.9972 0.0091 -0.0741
vn -0.9998 0.0192 -0.0004
vn 0.0002 0.0199 -0.9998
vn -0.0000 -0.9997 0.0235
vn -0.0000 -0.3822 0.9241
vn -0.0000 -0.9999 -0.0107
vn -0.0000 0.0307 0.9995
vn -0.0000 0.3400 0.9404
vn -0.0000 -0.9021 -0.4316
vn -0.0000 -0.7106 -0.7036
vn -0.0000 -0.7575 -0.6528
vn -0.0000 0.6706 0.7419
vn -0.0000 0.8451 0.5345
vn -0.0000 0.9348 0.3552
vn -0.0000 -1.0000 -0.0031
vn -0.0000 -0.9934 -0.1143
vn -0.0000 -1.0000 0.0031
vn -0.0000 0.9810 0.1941
vn -0.0000 1.0000 0.0037
vn -0.0000 1.0000 -0.0037
vn -0.0000 0.9810 -0.1941
vn -0.0000 -0.9934 0.1143
vn -0.0000 -0.9021 0.4316
vn -0.0000 0.3400 -0.9404
vn -0.0000 0.6706 -0.7418
vn -0.0000 0.8451 -0.5345
vn -0.0000 -0.7106 0.7036
vn -0.0000 -0.7575 0.6528
vn -0.0000 -0.9999 0.0107
vn -0.0000 -0.9997 -0.0235
vn -0.0000 -0.3822 -0.9241
vn -0.0001 -0.3822 -0.9241
vn -0.0000 0.0307 -0.9995
vn -0.0000 0.9348 -0.3552
vn 0.0001 -0.9999 -0.0107
vn -0.0000 0.6706 0.7418
vn -0.0000 0.8451 0.5346
vn -0.0000 0.3401 -0.9404
vn -0.0001 -0.9999 0.0107
vn -0.0001 -0.9997 -0.0235
vn 0.2320 0.9727 -0.0000
vn 0.0073 1.0000 -0.0000
vn 0.9142 0.4053 -0.0000
vn 0.2348 -0.9720 -0.0000
vn 0.0036 -1.0000 -0.0000
vn 0.9179 -0.3967 -0.0000
vn -0.2320 0.9727 -0.0000
vn -0.0073 1.0000 -0.0000
vn -0.9142 0.4053 -0.0000
vn -0.2348 -0.9720 -0.0000
vn -0.0036 -1.0000 -0.0000
vn -0.9179 -0.3967 -0.0000
vt 0.968046 0.104226
vt 0.968046 0.088247
vt 0.946534 0.088247
vt 0.946534 0.104226
vt 0.946534 0.388910
vt 0.968046 0.388910
vt 0.282309 0.522247
vt 0.282309 0.442721
vt 0.063884 0.442720
vt 0.063883 0.522246
vt 0.055768 0.433266
vt 0.055768 0.531700
vt 0.580078 0.910003
vt 0.580078 0.888491
vt 0.564098 0.888491
vt 0.564098 0.910003
vt 0.864762 0.910003
vt 0.864762 0.888491
vt 0.557003 0.888491
vt 0.557003 0.910003
vt 0.051471 0.429828
vt 0.051471 0.535137
vt 0.550115 0.888491
vt 0.550115 0.910003
vt 0.046697 0.427495
vt 0.046697 0.537470
vt 0.968046 0.081152
vt 0.968046 0.074264
vt 0.946534 0.074264
vt 0.946534 0.081152
vt 0.968046 0.066906
vt 0.946534 0.066906
vt 0.041207 0.426145
vt 0.041207 0.538820
vt 0.968046 0.052836
vt 0.946534 0.052836
vt 0.030465 0.425040
vt 0.030465 0.539925
vt 0.542758 0.910003
vt 0.542758 0.888491
vt 0.528688 0.888491
vt 0.528688 0.910003
vt 0.511060 0.888491
vt 0.511060 0.910003
vt 0.023185 0.413315
vt 0.023185 0.551650
vt 0.501585 0.888492
vt 0.501585 0.910004
vt 0.018709 0.407421
vt 0.018709 0.557544
vt 0.968046 0.035209
vt 0.968046 0.025734
vt 0.946534 0.025734
vt 0.946534 0.035209
vt 0.968046 0.017254
vt 0.946534 0.017254
vt 0.013576 0.403308
vt 0.013577 0.561657
vt 0.968046 0.010062
vt 0.946534 0.010062
vt 0.008444 0.401221
vt 0.008445 0.563744
vt 0.493106 0.910004
vt 0.493106 0.888492
vt 0.485913 0.888492
vt 0.485913 0.910004
vt 0.003551 0.400177
vt 0.003551 0.564788
vt 0.479400 0.888492
vt 0.479400 0.910004
vt 0.968046 0.003548
vt 0.946534 0.003548
vt 0.008442 0.226672
vt 0.008442 0.389195
vt 0.003548 0.390239
vt 0.003548 0.225629
vt 0.013574 0.228759
vt 0.013574 0.387108
vt 0.018706 0.232872
vt 0.018706 0.382995
vt 0.023182 0.238766
vt 0.023182 0.377102
vt 0.030462 0.250491
vt 0.030462 0.365377
vt 0.041204 0.251596
vt 0.041204 0.364272
vt 0.046694 0.252947
vt 0.046694 0.362921
vt 0.051468 0.255279
vt 0.051468 0.360588
vt 0.055765 0.258717
vt 0.055765 0.357151
vt 0.063881 0.268171
vt 0.063881 0.347697
vt 0.282306 0.268172
vt 0.282306 0.347698
vt 0.288236 0.962769
vt 0.288236 0.941257
vt 0.304216 0.941257
vt 0.304216 0.962769
vt 0.003552 0.962769
vt 0.003552 0.941257
vt 0.068432 0.529993
vt 0.286857 0.529994
vt 0.286857 0.609521
vt 0.068432 0.609520
vt 0.294973 0.520541
vt 0.294973 0.618974
vt 0.580077 0.940448
vt 0.564097 0.940448
vt 0.564097 0.918936
vt 0.580077 0.918936
vt 0.864760 0.918936
vt 0.864760 0.940448
vt 0.557002 0.940448
vt 0.557002 0.918936
vt 0.299270 0.517103
vt 0.299270 0.622412
vt 0.550114 0.940448
vt 0.550113 0.918936
vt 0.304044 0.514770
vt 0.304044 0.624745
vt 0.311310 0.962769
vt 0.311310 0.941257
vt 0.318199 0.941257
vt 0.318199 0.962769
vt 0.325556 0.941257
vt 0.325556 0.962769
vt 0.309534 0.513420
vt 0.309534 0.626095
vt 0.339626 0.941257
vt 0.339626 0.962769
vt 0.320276 0.512315
vt 0.320276 0.627201
vt 0.542756 0.940448
vt 0.528686 0.940448
vt 0.528686 0.918936
vt 0.542756 0.918936
vt 0.511059 0.940448
vt 0.511059 0.918936
vt 0.327556 0.500590
vt 0.327556 0.638926
vt 0.501584 0.940448
vt 0.501584 0.918936
vt 0.332032 0.494696
vt 0.332032 0.644819
vt 0.357253 0.962769
vt 0.357253 0.941257
vt 0.366729 0.941257
vt 0.366729 0.962769
vt 0.375208 0.941257
vt 0.375208 0.962769
vt 0.337164 0.490584
vt 0.337164 0.648932
vt 0.382401 0.941257
vt 0.382401 0.962769
vt 0.342296 0.488497
vt 0.342297 0.651019
vt 0.493104 0.940448
vt 0.485912 0.940448
vt 0.485912 0.918936
vt 0.493104 0.918936
vt 0.347190 0.487453
vt 0.347190 0.652063
vt 0.479398 0.940448
vt 0.479398 0.918936
vt 0.388914 0.941257
vt 0.388914 0.962769
vt 0.342302 0.476467
vt 0.347195 0.477510
vt 0.347195 0.312901
vt 0.342302 0.313944
vt 0.337170 0.316032
vt 0.337170 0.474380
vt 0.332037 0.320144
vt 0.332037 0.470267
vt 0.327562 0.326038
vt 0.327561 0.464373
vt 0.320281 0.337763
vt 0.320281 0.452648
vt 0.309540 0.338867
vt 0.309539 0.451543
vt 0.304049 0.340218
vt 0.304049 0.450193
vt 0.299275 0.342551
vt 0.299275 0.447860
vt 0.294979 0.345988
vt 0.294978 0.444422
vt 0.286862 0.434968
vt 0.286863 0.355442
vt 0.068437 0.434967
vt 0.068437 0.355441
vt 0.949490 0.398209
vt 0.953076 0.397309
vt 0.956617 0.397335
vt 0.957655 0.398425
vt 0.289601 0.315257
vt 0.296932 0.315209
vt 0.299470 0.317691
vt 0.302622 0.316741
vt 0.303194 0.313804
vt 0.307610 0.310780
vt 0.304450 0.315912
vt 0.306199 0.317088
vt 0.304141 0.320080
vt 0.307609 0.325271
vt 0.004406 0.003678
vt 0.003718 0.003847
vt 0.003623 0.004894
vt 0.005634 0.003552
vt 0.003556 0.006321
vt 0.035128 0.415972
vt 0.042671 0.414404
vt 0.043137 0.416678
vt 0.004379 0.217634
vt 0.003765 0.216753
vt 0.003837 0.217465
vt 0.005426 0.217832
vt 0.003825 0.215493
vt 0.046483 0.416015
vt 0.045246 0.412871
vt 0.047034 0.413500
vt 0.049626 0.408202
vt 0.049023 0.413555
vt 0.048691 0.418061
vt 0.046182 0.418306
vt 0.049379 0.420752
vt 0.965483 0.398257
vt 0.966173 0.397400
vt 0.971838 0.397314
vt 0.973336 0.397874
vt 0.965016 0.399875
vt 0.974887 0.399957
vt 0.976388 0.402612
vt 0.278629 0.229229
vt 0.279530 0.231373
vt 0.279257 0.237032
vt 0.278419 0.237640
vt 0.277170 0.227883
vt 0.276947 0.238200
vt 0.272724 0.226825
vt 0.273275 0.238198
vt 0.947738 0.400774
vt 0.957913 0.400307
vt 0.031429 0.237877
vt 0.030201 0.236877
vt 0.029819 0.233358
vt 0.031626 0.228885
vt 0.033096 0.238200
vt 0.034606 0.226816
vt 0.946539 0.406502
vt 0.003724 0.212346
vt 0.777035 0.872100
vt 0.774959 0.877383
vt 0.384596 0.872697
vt 0.383919 0.866295
vt 0.949490 0.966597
vt 0.957714 0.966126
vt 0.956614 0.967358
vt 0.953073 0.967366
vt 0.294592 0.267773
vt 0.297084 0.278005
vt 0.294642 0.275334
vt 0.296205 0.281234
vt 0.293365 0.281765
vt 0.295424 0.283098
vt 0.289844 0.286722
vt 0.296584 0.284930
vt 0.299460 0.282873
vt 0.304370 0.286702
vt 0.375784 0.003879
vt 0.376712 0.004963
vt 0.376575 0.004024
vt 0.374749 0.003552
vt 0.376827 0.006791
vt 0.304094 0.302962
vt 0.296169 0.303628
vt 0.296555 0.301162
vt 0.375762 0.217634
vt 0.376546 0.217465
vt 0.376617 0.216457
vt 0.374956 0.217832
vt 0.376663 0.214596
vt 0.292769 0.302577
vt 0.293995 0.299481
vt 0.292219 0.300013
vt 0.289642 0.294541
vt 0.290242 0.299956
vt 0.290569 0.304506
vt 0.293061 0.304901
vt 0.289880 0.307169
vt 0.965482 0.965943
vt 0.973337 0.966689
vt 0.971839 0.967248
vt 0.966634 0.967163
vt 0.965017 0.964688
vt 0.974888 0.964606
vt 0.976389 0.961950
vt 0.252224 0.627513
vt 0.251671 0.619102
vt 0.252854 0.620172
vt 0.253125 0.625369
vt 0.250771 0.628863
vt 0.249500 0.618546
vt 0.246325 0.629919
vt 0.947739 0.964032
vt 0.957913 0.964499
vt 0.005105 0.618887
vt 0.005225 0.627859
vt 0.003621 0.623391
vt 0.003992 0.619871
vt 0.007242 0.618546
vt 0.008692 0.629930
vt 0.946539 0.958304
vt 0.772946 0.004880
vt 0.391841 0.004124
vt 0.766139 0.003548
vt 0.774958 0.006655
vt 0.386967 0.006244
vt 0.777035 0.011938
vt 0.384596 0.011341
vt 0.383919 0.017743
vt 0.772946 0.879158
vt 0.766139 0.880489
vt 0.391071 0.879963
vt 0.386967 0.877794
vt 0.628494 0.987947
vt 0.628494 0.996445
vt 0.003551 0.996445
vt 0.003551 0.987948
vt 0.784132 0.715966
vt 0.824900 0.715966
vt 0.824900 0.732789
vt 0.784132 0.732789
vt 0.375635 0.851759
vt 0.354291 0.851759
vt 0.354291 0.226818
vt 0.375635 0.226818
vt 0.824902 0.691612
vt 0.824902 0.708435
vt 0.784134 0.708435
vt 0.784134 0.691612
vt 0.003554 0.685150
vt 0.003554 0.642897
vt 0.319244 0.642897
vt 0.319244 0.685150
vt 0.628498 0.971710
vt 0.003555 0.971710
vt 0.003555 0.980208
vt 0.628498 0.980208
vt 0.343178 0.659134
vt 0.326355 0.659134
vt 0.326355 0.699902
vt 0.343178 0.699902
vt 0.939438 0.628496
vt 0.939437 0.003554
vt 0.918093 0.003554
vt 0.918093 0.628496
vt 0.848829 0.732382
vt 0.848829 0.691614
vt 0.832006 0.691614
vt 0.832006 0.732382
vt 0.908121 0.796214
vt 0.908121 0.480524
vt 0.865868 0.480524
vt 0.865868 0.796214
vt 0.319684 0.726462
vt 0.317585 0.728167
vt 0.241238 0.729043
vt 0.237862 0.727647
vt 0.825002 0.585625
vt 0.825002 0.582892
vt 0.858764 0.582892
vt 0.858764 0.585625
vt 0.858764 0.663900
vt 0.825002 0.663900
vt 0.004177 0.814335
vt 0.003583 0.808401
vt 0.006337 0.816071
vt 0.004501 0.802187
vt 0.084610 0.816513
vt 0.825002 0.577136
vt 0.858764 0.577136
vt 0.825002 0.571070
vt 0.858764 0.571070
vt 0.320232 0.720670
vt 0.232634 0.720601
vt 0.319303 0.714615
vt 0.227785 0.716288
vt 0.825001 0.682968
vt 0.825002 0.676418
vt 0.858764 0.676418
vt 0.858764 0.682969
vt 0.825002 0.667626
vt 0.858764 0.667626
vt 0.014169 0.789872
vt 0.023297 0.784890
vt 0.098331 0.803357
vt 0.093384 0.807807
vt 0.007309 0.796533
vt 0.088064 0.815062
vt 0.825002 0.564935
vt 0.825002 0.555534
vt 0.858764 0.555534
vt 0.858764 0.564935
vt 0.825002 0.545218
vt 0.858764 0.545218
vt 0.309793 0.702630
vt 0.316534 0.709115
vt 0.222201 0.715020
vt 0.212922 0.714507
vt 0.291697 0.694712
vt 0.300637 0.697632
vt 0.825001 0.016114
vt 0.825001 0.009104
vt 0.858764 0.009104
vt 0.858764 0.016114
vt 0.858764 0.117571
vt 0.825001 0.117571
vt 0.283137 0.693645
vt 0.111155 0.714507
vt 0.040939 0.693645
vt 0.825002 0.535874
vt 0.825002 0.527278
vt 0.858764 0.527278
vt 0.858764 0.535874
vt 0.825001 0.285819
vt 0.858764 0.285819
vt 0.032380 0.694712
vt 0.825001 0.277224
vt 0.858764 0.277224
vt 0.219201 0.802100
vt 0.212201 0.801713
vt 0.282203 0.780915
vt 0.290737 0.781978
vt 0.110745 0.801713
vt 0.040743 0.780915
vt 0.858764 0.124581
vt 0.825001 0.124581
vt 0.224615 0.803357
vt 0.299648 0.784890
vt 0.858764 0.130129
vt 0.825001 0.130129
vt 0.104082 0.715290
vt 0.007376 0.709281
vt 0.014284 0.702630
vt 0.098641 0.716611
vt 0.004531 0.714937
vt 0.825001 0.242027
vt 0.858764 0.242027
vt 0.858764 0.248163
vt 0.825001 0.248163
vt 0.858764 0.257563
vt 0.825001 0.257563
vt 0.238335 0.816513
vt 0.234882 0.815062
vt 0.315636 0.796534
vt 0.318445 0.802188
vt 0.229562 0.807807
vt 0.308777 0.789872
vt 0.825001 0.136678
vt 0.858764 0.136678
vt 0.858764 0.145471
vt 0.825001 0.145471
vt 0.858764 0.149197
vt 0.825001 0.149197
vt 0.093657 0.721048
vt 0.088285 0.728297
vt 0.004145 0.727120
vt 0.003579 0.721165
vt 0.084814 0.729734
vt 0.006304 0.728873
vt 0.825001 0.227472
vt 0.858764 0.227472
vt 0.858764 0.230205
vt 0.825001 0.230205
vt 0.858764 0.235962
vt 0.825001 0.235962
vt 0.316608 0.816071
vt 0.319363 0.808401
vt 0.318769 0.814335
vt 0.858764 0.267880
vt 0.825001 0.267880
vt 0.023440 0.697632
vt 0.032209 0.781979
vt 0.103744 0.802100
vt 0.825001 0.003556
vt 0.858764 0.003557
vt 0.014872 0.826825
vt 0.096694 0.825639
vt 0.093318 0.824243
vt 0.016970 0.825120
vt 0.784137 0.585624
vt 0.817900 0.585624
vt 0.817900 0.582891
vt 0.784137 0.582891
vt 0.784137 0.663899
vt 0.817900 0.663899
vt 0.323875 0.738450
vt 0.321715 0.736715
vt 0.324469 0.744384
vt 0.243441 0.736272
vt 0.323551 0.750598
vt 0.817900 0.577135
vt 0.784137 0.577135
vt 0.817900 0.571069
vt 0.784137 0.571069
vt 0.014324 0.832616
vt 0.101922 0.832686
vt 0.015252 0.838672
vt 0.106771 0.836998
vt 0.784137 0.682967
vt 0.817900 0.682968
vt 0.817900 0.676417
vt 0.784137 0.676417
vt 0.817900 0.667625
vt 0.784137 0.667625
vt 0.313883 0.762914
vt 0.234668 0.744978
vt 0.229721 0.749428
vt 0.304755 0.767896
vt 0.320742 0.756252
vt 0.239988 0.737723
vt 0.784137 0.564934
vt 0.817900 0.564934
vt 0.817900 0.555533
vt 0.784137 0.555533
vt 0.817900 0.545217
vt 0.784137 0.545217
vt 0.024763 0.850657
vt 0.121634 0.838780
vt 0.112354 0.838267
vt 0.018022 0.844172
vt 0.033919 0.855655
vt 0.042859 0.858575
vt 0.784137 0.016113
vt 0.817900 0.016113
vt 0.817900 0.009103
vt 0.784137 0.009103
vt 0.784137 0.117570
vt 0.817900 0.117570
vt 0.051419 0.859641
vt 0.293617 0.859641
vt 0.223401 0.838780
vt 0.784137 0.535872
vt 0.817900 0.535872
vt 0.817900 0.527277
vt 0.784137 0.527277
vt 0.784137 0.285818
vt 0.817900 0.285818
vt 0.302176 0.858575
vt 0.784137 0.277223
vt 0.817900 0.277223
vt 0.108850 0.750686
vt 0.037315 0.770807
vt 0.045849 0.771871
vt 0.115850 0.751073
vt 0.287308 0.771871
vt 0.217307 0.751072
vt 0.784137 0.124580
vt 0.817900 0.124580
vt 0.103437 0.749428
vt 0.028403 0.767896
vt 0.784137 0.130127
vt 0.817900 0.130127
vt 0.320272 0.850657
vt 0.327180 0.844005
vt 0.230473 0.837996
vt 0.330025 0.838349
vt 0.235915 0.836676
vt 0.784137 0.242026
vt 0.784137 0.248161
vt 0.817900 0.248161
vt 0.817900 0.242026
vt 0.784137 0.257562
vt 0.817900 0.257562
vt 0.089717 0.736272
vt 0.009607 0.750598
vt 0.012416 0.756252
vt 0.093170 0.737723
vt 0.019275 0.762914
vt 0.098490 0.744978
vt 0.784137 0.136677
vt 0.784137 0.145470
vt 0.817900 0.145470
vt 0.817900 0.136677
vt 0.784137 0.149196
vt 0.817900 0.149196
vt 0.240898 0.832239
vt 0.330977 0.832121
vt 0.330410 0.826166
vt 0.246271 0.824990
vt 0.328252 0.824414
vt 0.249742 0.823553
vt 0.784137 0.227471
vt 0.784137 0.230204
vt 0.817900 0.230204
vt 0.817900 0.227471
vt 0.784137 0.235960
vt 0.817900 0.235960
vt 0.011443 0.736715
vt 0.009283 0.738450
vt 0.008689 0.744384
vt 0.784137 0.267878
vt 0.817900 0.267878
vt 0.311116 0.855655
vt 0.295842 0.770807
vt 0.224308 0.750685
vt 0.817900 0.003555
vt 0.784137 0.003555
vt 0.059772 0.399525
vt 0.039711 0.399449
vt 0.039787 0.371104
vt 0.059772 0.370954
vt 0.312273 0.284123
vt 0.323284 0.284123
vt 0.323284 0.304224
vt 0.312273 0.304224
vt 0.312273 0.272693
vt 0.323284 0.272693
vt 0.030728 0.392259
vt 0.030804 0.378105
vt 0.323284 0.246993
vt 0.312273 0.246993
vt 0.312273 0.226817
vt 0.323284 0.226817
vt 0.323284 0.258539
vt 0.312273 0.258539
vt 0.003578 0.600908
vt 0.003728 0.580923
vt 0.032073 0.580847
vt 0.032149 0.600908
vt 0.010729 0.571940
vt 0.024883 0.571865
vt 0.472296 0.888495
vt 0.472295 0.933612
vt 0.003548 0.933612
vt 0.003548 0.888495
vt 0.983489 0.003553
vt 0.994477 0.003553
vt 0.994477 0.472300
vt 0.983489 0.472300
vt 0.865869 0.003553
vt 0.910986 0.003553
vt 0.910986 0.472300
vt 0.865869 0.472301
vt 0.983485 0.480531
vt 0.994537 0.480531
vt 0.994537 0.946599
vt 0.983485 0.946599
vt 0.059782 0.574066
vt 0.059782 0.545496
vt 0.039797 0.545645
vt 0.039721 0.573990
vt 0.341399 0.246914
vt 0.341399 0.226813
vt 0.330389 0.226813
vt 0.330389 0.246914
vt 0.330389 0.258344
vt 0.341399 0.258344
vt 0.030815 0.552647
vt 0.030739 0.566800
vt 0.330389 0.284044
vt 0.330389 0.304220
vt 0.341399 0.304220
vt 0.341399 0.284044
vt 0.330389 0.272498
vt 0.341399 0.272498
vt 0.289410 0.458225
vt 0.289410 0.486795
vt 0.309471 0.486719
vt 0.309396 0.458374
vt 0.318454 0.479529
vt 0.318378 0.465376
vt 0.938606 0.636806
vt 0.915224 0.636806
vt 0.915225 0.931118
vt 0.938606 0.931118
vt 0.305167 0.258579
vt 0.305167 0.247109
vt 0.066688 0.247109
vt 0.066688 0.258579
vt 0.635600 0.949377
vt 0.635600 0.976186
vt 0.921923 0.976186
vt 0.921923 0.949377
s 1
usemtl painted_wooden_table
f 2/1/1 46/2/2 4/3/2 1/4/1
f 1/4/1 3/5/3 48/6/3 2/1/1
f 7/7/4 3/8/4 1/9/4 5/10/4
f 5/10/4 1/9/4 4/11/4 8/12/4
f 6/13/5 5/14/5 8/15/6 9/16/6
f 5/14/5 6/13/5 47/17/7 7/18/7
f 9/16/6 8/15/6 10/19/8 11/20/8
f 8/12/4 4/11/4 13/21/4 10/22/4
f 11/20/8 10/19/8 12/23/9 45/24/9
f 10/22/4 13/21/4 15/25/4 12/26/4
f 14/27/10 16/28/11 15/29/11 13/30/10
f 46/2/2 14/27/10 13/30/10 4/3/2
f 16/28/11 18/31/12 17/32/12 15/29/11
f 12/26/4 15/25/4 17/33/4 20/34/4
f 18/31/12 44/35/13 19/36/13 17/32/12
f 20/34/4 17/33/4 19/37/4 22/38/4
f 21/39/14 20/40/14 22/41/15 23/42/15
f 45/24/9 12/23/9 20/40/14 21/39/14
f 23/42/15 22/41/15 24/43/16 25/44/16
f 22/38/4 19/37/4 27/45/4 24/46/4
f 25/44/16 24/43/16 26/47/17 43/48/17
f 24/46/4 27/45/4 29/49/4 26/50/4
f 28/51/18 30/52/19 29/53/19 27/54/18
f 44/35/13 28/51/18 27/54/18 19/36/13
f 30/52/19 32/55/20 31/56/20 29/53/19
f 26/50/4 29/49/4 31/57/4 34/58/4
f 32/55/20 42/59/21 33/60/21 31/56/20
f 34/58/4 31/57/4 33/61/4 36/62/4
f 35/63/22 34/64/22 36/65/23 37/66/23
f 43/48/17 26/47/17 34/64/22 35/63/22
f 36/62/4 33/61/4 40/67/4 38/68/4
f 37/66/23 36/65/23 38/69/24 39/70/24
f 42/59/21 41/71/25 40/72/25 33/60/21
f 42/73/26 37/74/26 39/75/26 41/76/26
f 42/73/26 32/77/26 35/78/26 37/74/26
f 32/77/26 30/79/26 43/80/26 35/78/26
f 30/79/26 28/81/26 25/82/26 43/80/26
f 28/81/26 44/83/26 23/84/26 25/82/26
f 44/83/26 18/85/26 21/86/26 23/84/26
f 18/85/26 16/87/26 45/88/26 21/86/26
f 16/87/26 14/89/26 11/90/26 45/88/26
f 14/89/26 46/91/26 9/92/26 11/90/26
f 2/93/26 6/94/26 9/92/26 46/91/26
f 48/95/26 47/96/26 6/94/26 2/93/26
f 50/97/27 49/98/1 52/99/2 94/100/2
f 49/98/1 50/97/27 96/101/3 51/102/3
f 55/103/26 53/104/26 49/105/26 51/106/26
f 53/104/26 56/107/26 52/108/26 49/105/26
f 54/109/5 57/110/6 56/111/6 53/112/5
f 53/112/5 55/113/7 95/114/7 54/109/5
f 57/110/6 59/115/8 58/116/8 56/111/6
f 56/107/26 58/117/26 61/118/26 52/108/26
f 59/115/8 93/119/9 60/120/9 58/116/8
f 58/117/26 60/121/26 63/122/26 61/118/26
f 62/123/10 61/124/10 63/125/11 64/126/11
f 94/100/2 52/99/2 61/124/10 62/123/10
f 64/126/11 63/125/11 65/127/12 66/128/12
f 60/121/26 68/129/26 65/130/26 63/122/26
f 66/128/12 65/127/12 67/131/13 92/132/13
f 68/129/26 70/133/26 67/134/26 65/130/26
f 69/135/14 71/136/15 70/137/15 68/138/14
f 93/119/9 69/135/14 68/138/14 60/120/9
f 71/136/15 73/139/16 72/140/16 70/137/15
f 70/133/26 72/141/26 75/142/26 67/134/26
f 73/139/16 91/143/17 74/144/17 72/140/16
f 72/141/26 74/145/26 77/146/26 75/142/26
f 76/147/18 75/148/18 77/149/19 78/150/19
f 92/132/13 67/131/13 75/148/18 76/147/18
f 78/150/19 77/149/19 79/151/20 80/152/20
f 74/145/26 82/153/26 79/154/26 77/146/26
f 80/152/20 79/151/20 81/155/21 90/156/21
f 82/153/26 84/157/26 81/158/26 79/154/26
f 83/159/22 85/160/23 84/161/23 82/162/22
f 91/143/17 83/159/22 82/162/22 74/144/17
f 84/157/26 86/163/26 88/164/26 81/158/26
f 85/160/23 87/165/24 86/166/24 84/161/23
f 90/156/21 81/155/21 88/167/25 89/168/25
f 90/169/4 89/170/4 87/171/4 85/172/4
f 90/169/4 85/172/4 83/173/4 80/174/4
f 80/174/4 83/173/4 91/175/4 78/176/4
f 78/176/4 91/175/4 73/177/4 76/178/4
f 76/178/4 73/177/4 71/179/4 92/180/4
f 92/180/4 71/179/4 69/181/4 66/182/4
f 66/182/4 69/181/4 93/183/4 64/184/4
f 64/184/4 93/183/4 59/185/4 62/186/4
f 62/186/4 59/185/4 57/187/4 94/188/4
f 50/189/4 94/188/4 57/187/4 54/190/4
f 96/191/4 50/189/4 54/190/4 95/192/4
f 103/193/28 102/194/29 107/195/29 108/196/28
f 97/197/30 98/198/31 104/199/32
f 104/199/32 98/198/31 106/200/33
f 99/201/34 106/200/33 98/198/31
f 99/201/34 100/202/35 105/203/36 106/200/33
f 101/204/37 105/203/36 100/202/35
f 105/203/36 101/204/37 103/205/38 106/200/33
f 104/199/32 106/200/33 103/205/38
f 101/204/37 102/206/39 103/205/38
f 108/207/40 107/208/41 109/209/40
f 111/210/42 108/207/40 109/209/40 110/211/43
f 115/212/44 114/213/45 116/214/46
f 123/215/47 124/216/47 122/217/48
f 126/218/42 125/219/49 124/216/47 123/215/47
f 127/220/50 116/214/46 114/213/45 113/221/51
f 127/220/50 113/221/51 112/222/52
f 121/223/53 112/222/52 113/221/51
f 112/222/52 121/223/53 120/224/54
f 127/220/50 112/222/52 120/224/54 119/225/55
f 116/214/46 127/220/50 117/226/56
f 127/220/50 119/225/55 118/227/57 117/226/56
f 123/228/58 122/229/59 118/230/59 119/231/58
f 126/232/60 123/228/58 119/231/58 120/233/61
f 126/232/60 120/233/61 121/234/62
f 117/235/63 118/236/64 122/237/64 124/238/63
f 116/239/65 117/235/63 124/238/63 125/240/65
f 115/241/66 116/239/65 125/240/65 128/242/67
f 104/243/68 103/193/28 108/196/28 111/244/69
f 109/245/70 107/246/71 102/247/71 101/248/72
f 110/249/73 109/245/70 101/248/72 100/250/73
f 97/251/74 104/243/68 111/244/69
f 128/242/67 110/249/73 100/250/73 115/241/66
f 111/210/42 110/211/43 128/252/42 125/219/49
f 111/210/42 125/219/49 126/218/42
f 121/253/75 113/254/75 98/255/75 97/256/75
f 135/257/76 140/258/77 139/259/78 134/260/78
f 129/261/79 136/262/80 130/263/81
f 136/262/80 138/264/82 130/263/81
f 131/265/83 130/263/81 138/264/82
f 131/265/83 138/264/82 137/266/84 132/267/85
f 133/268/86 132/267/85 137/266/84
f 137/266/84 138/264/82 135/269/87 133/268/86
f 136/262/80 135/269/87 138/264/82
f 133/268/86 135/269/87 134/270/88
f 140/271/89 141/272/90 139/273/91
f 143/274/42 142/275/92 141/272/90 140/271/89
f 147/276/93 148/277/94 146/278/95
f 155/279/96 154/280/97 156/281/96
f 158/282/42 155/279/96 156/281/96 157/283/98
f 159/284/99 145/285/100 146/278/95 148/277/94
f 159/284/99 144/286/101 145/285/100
f 153/287/102 145/285/100 144/286/101
f 144/286/101 152/288/103 153/287/102
f 159/284/99 151/289/104 152/288/103 144/286/101
f 148/277/94 149/290/105 159/284/99
f 159/284/99 149/290/105 150/291/106 151/289/104
f 155/292/107 151/293/107 150/294/108 154/295/108
f 158/296/109 152/297/110 151/293/107 155/292/107
f 158/296/109 153/298/111 152/297/110
f 149/299/112 156/300/113 154/301/114 150/302/114
f 148/303/115 157/304/116 156/300/113 149/299/112
f 147/305/117 157/304/116 148/303/115
f 136/306/118 143/307/119 140/258/77 135/257/76
f 141/308/120 133/309/120 134/310/121 139/311/121
f 142/312/122 132/313/122 133/309/120 141/308/120
f 129/314/123 143/307/119 136/306/118
f 157/304/116 147/305/117 132/313/122 142/312/122
f 143/274/42 157/283/98 142/275/92
f 143/274/42 158/282/42 157/283/98
f 146/315/75 132/316/75 147/317/75
f 145/318/75 131/319/75 132/316/75 146/315/75
f 153/320/75 130/321/75 131/319/75 145/318/75
f 130/321/75 153/320/75 129/322/75
f 111/244/69 143/307/119 129/314/123 97/251/74
f 121/253/75 97/256/75 129/322/75 153/320/75
f 126/232/60 121/234/62 153/298/111 158/296/109
f 111/210/42 126/218/42 158/282/42 143/274/42
f 114/323/75 115/324/75 100/325/75 99/326/75
f 160/327/42 161/328/42 164/329/42 163/330/42
f 160/331/7 162/332/7 167/333/7 161/334/7
f 162/335/26 160/336/26 163/337/26 165/338/26
f 163/339/3 164/340/3 166/341/3 165/342/3
f 161/343/4 167/344/4 166/345/4 164/346/4
f 168/347/42 171/348/42 172/349/42 169/350/42
f 168/351/7 169/352/7 175/353/7 170/354/7
f 170/355/4 173/356/4 171/357/4 168/358/4
f 171/359/3 173/360/3 174/361/3 172/362/3
f 169/363/26 172/364/26 174/365/26 175/366/26
f 177/367/26 176/368/26 178/369/26 188/370/26
f 176/371/124 177/372/125 180/373/125 179/374/124
f 176/371/124 179/374/124 181/375/126 178/376/126
f 180/377/4 182/378/4 179/379/4
f 179/379/4 182/378/4 183/380/4 181/381/4
f 177/372/125 184/382/127 182/383/127 180/373/125
f 184/382/127 185/384/128 183/385/128 182/383/127
f 184/386/26 177/367/26 188/370/26 186/387/26
f 185/388/26 184/386/26 186/387/26 187/389/26
f 187/390/129 186/391/130 189/392/130 190/393/129
f 186/391/130 188/394/131 191/395/131 189/392/130
f 192/396/4 194/397/4 190/398/4 189/399/4
f 193/400/4 192/396/4 189/399/4 191/401/4
f 196/402/132 195/403/133 192/404/133 193/405/132
f 195/403/133 197/406/134 194/407/134 192/404/133
f 195/408/26 196/409/26 199/410/26 198/411/26
f 195/408/26 198/411/26 202/412/26 197/413/26
f 198/414/135 199/415/136 235/416/136 200/417/135
f 200/417/135 209/418/137 201/419/137 198/414/135
f 203/420/26 198/411/26 201/421/26 205/422/26
f 203/420/26 202/412/26 198/411/26
f 202/423/138 203/424/139 204/425/139 234/426/138
f 205/427/140 207/428/140 204/425/139 203/424/139
f 206/429/26 205/422/26 201/421/26
f 206/430/141 208/431/141 207/428/140 205/427/140
f 210/432/4 209/433/4 207/434/4 208/435/4
f 207/434/4 209/433/4 200/436/4 204/437/4
f 201/419/137 209/418/137 210/438/142 212/439/142
f 211/440/4 210/432/4 208/435/4 232/441/4
f 212/439/142 210/438/142 211/442/143 213/443/143
f 201/421/26 212/444/26 214/445/26 216/446/26
f 212/444/26 213/447/26 215/448/26 214/445/26
f 215/449/144 218/450/144 217/451/145 214/452/145
f 214/452/145 217/451/145 219/453/146 216/454/146
f 222/455/4 220/456/4 217/457/4 218/458/4
f 220/456/4 221/459/4 219/460/4 217/457/4
f 224/461/147 221/462/147 220/463/148 223/464/148
f 223/464/148 220/463/148 222/465/149 225/466/149
f 224/467/26 223/468/26 226/469/26 228/470/26
f 223/468/26 225/471/26 227/472/26 226/469/26
f 227/473/150 230/474/150 229/475/151 226/476/152
f 226/476/152 229/475/151 231/477/153 228/478/153
f 230/479/4 231/480/4 229/481/4
f 230/479/4 222/455/4 218/458/4 231/480/4
f 228/478/153 231/477/153 218/450/144 215/449/144
f 227/473/150 225/466/149 222/465/149 230/474/150
f 213/447/26 224/467/26 228/470/26 215/448/26
f 213/443/143 211/442/143 221/462/147 224/461/147
f 221/459/4 211/440/4 232/441/4 219/460/4
f 216/454/146 219/453/146 232/482/154 233/483/154
f 233/483/154 232/482/154 208/431/141 206/430/141
f 216/446/26 233/484/26 206/429/26 201/421/26
f 234/485/4 204/437/4 200/436/4 235/486/4
f 194/397/4 234/485/4 235/486/4 190/398/4
f 197/406/134 202/423/138 234/426/138 194/407/134
f 199/415/136 187/487/129 190/488/129 235/416/136
f 196/409/26 185/388/26 187/389/26 199/410/26
f 185/384/128 196/402/132 193/405/132 183/385/128
f 183/380/4 193/400/4 191/401/4 181/381/4
f 188/394/131 178/376/126 181/375/126 191/395/131
f 237/489/4 248/490/4 238/491/4 236/492/4
f 236/493/124 239/494/124 240/495/125 237/496/125
f 236/493/124 238/497/155 241/498/126 239/494/124
f 240/499/26 239/500/26 242/501/26
f 239/500/26 241/502/26 243/503/26 242/501/26
f 237/496/125 240/495/125 242/504/127 244/505/127
f 244/505/127 242/504/127 243/506/128 245/507/128
f 244/508/4 246/509/4 248/490/4 237/489/4
f 245/510/4 247/511/4 246/509/4 244/508/4
f 247/512/129 250/513/129 249/514/130 246/515/130
f 246/515/130 249/514/130 251/516/131 248/517/131
f 252/518/26 249/519/26 250/520/26 254/521/26
f 253/522/26 251/523/26 249/519/26 252/518/26
f 256/524/156 253/525/156 252/526/157 255/527/157
f 255/527/157 252/526/157 254/528/134 257/529/134
f 255/530/4 258/531/4 259/532/4 256/533/4
f 255/530/4 257/534/4 262/535/4 258/531/4
f 258/536/135 260/537/135 295/538/136 259/539/136
f 260/537/135 258/536/135 261/540/137 269/541/137
f 263/542/4 265/543/4 261/544/4 258/531/4
f 263/542/4 258/531/4 262/535/4
f 262/545/138 294/546/138 264/547/139 263/548/139
f 265/549/140 263/548/139 264/547/139 267/550/140
f 266/551/4 261/544/4 265/543/4
f 266/552/141 265/549/140 267/550/140 268/553/141
f 270/554/26 268/555/26 267/556/26 269/557/26
f 267/556/26 264/558/26 260/559/26 269/557/26
f 261/540/137 272/560/142 270/561/142 269/541/137
f 271/562/26 292/563/26 268/555/26 270/554/26
f 272/560/142 273/564/143 271/565/143 270/561/142
f 261/544/4 276/566/4 274/567/4 272/568/4
f 272/568/4 274/567/4 275/569/4 273/570/4
f 275/571/158 274/572/145 277/573/145 278/574/158
f 274/572/145 276/575/146 279/576/146 277/573/145
f 282/577/26 278/578/26 277/579/26 280/580/26
f 280/580/26 277/579/26 279/581/26 281/582/26
f 284/583/147 283/584/148 280/585/148 281/586/147
f 283/584/148 285/587/149 282/588/159 280/585/148
f 284/589/4 288/590/4 286/591/4 283/592/4
f 283/592/4 286/591/4 287/593/4 285/594/4
f 287/595/160 286/596/151 289/597/151 290/598/150
f 286/596/151 288/599/153 291/600/153 289/597/151
f 290/601/26 289/602/26 291/603/26
f 290/601/26 291/603/26 278/578/26 282/577/26
f 288/599/153 275/571/158 278/574/158 291/600/153
f 287/595/160 290/598/150 282/588/159 285/587/149
f 273/570/4 275/569/4 288/590/4 284/589/4
f 273/564/143 284/583/147 281/586/147 271/565/143
f 281/582/26 279/581/26 292/563/26 271/562/26
f 276/575/146 293/604/154 292/605/154 279/576/146
f 293/604/154 266/552/141 268/553/141 292/605/154
f 276/566/4 261/544/4 266/551/4 293/606/4
f 294/607/26 295/608/26 260/559/26 264/558/26
f 254/521/26 250/520/26 295/608/26 294/607/26
f 257/529/134 254/528/134 294/546/138 262/545/138
f 259/539/136 295/538/136 250/609/129 247/610/129
f 256/533/4 259/532/4 247/511/4 245/510/4
f 245/507/128 243/506/128 253/525/156 256/524/156
f 243/503/26 241/502/26 251/523/26 253/522/26
f 248/517/131 251/516/131 241/498/126 238/497/155
f 303/611/7 300/612/7 296/613/7 297/614/7
f 296/615/161 298/616/161 305/617/162 297/618/162
f 298/616/161 296/615/161 299/619/163 307/620/163
f 300/612/7 302/621/7 299/622/7 296/613/7
f 301/623/164 300/624/164 303/625/165 304/626/165
f 306/627/166 302/628/166 300/624/164 301/623/164
f 305/629/3 298/630/3 301/631/3 304/632/3
f 307/620/163 299/619/163 302/628/166 306/627/166
f 298/630/3 307/633/3 306/634/3 301/631/3
f 308/635/3 309/636/3 312/637/3 311/638/3
f 310/639/75 308/640/75 311/641/75 313/642/75
f 315/643/7 310/644/7 313/645/7 314/646/7
f 309/647/42 315/648/42 314/649/42 312/650/42
f 323/651/7 317/652/7 316/653/7 320/654/7
f 316/655/167 317/656/168 325/657/168 318/658/167
f 318/658/167 327/659/169 319/660/169 316/655/167
f 320/654/7 316/653/7 319/661/7 322/662/7
f 321/663/170 324/664/171 323/665/171 320/666/170
f 326/667/172 321/663/170 320/666/170 322/668/172
f 325/669/3 324/670/3 321/671/3 318/672/3
f 327/659/169 326/667/172 322/668/172 319/660/169
f 318/672/3 321/671/3 326/673/3 327/674/3
f 328/675/3 329/676/3 331/677/3 330/678/3
f 329/679/42 334/680/42 332/681/42 331/682/42
f 334/683/7 335/684/7 333/685/7 332/686/7
f 113/254/75 114/323/75 99/326/75 98/255/75
